<svg xmlns="http://www.w3.org/2000/svg" viewBox="0 0 710.461 563.263">
  <defs>
    <style>
      .cls-1 {
        fill: #d0cdcd;
      }

      .cls-2 {
        fill: #d39689;
      }

      .cls-3 {
        fill: #474ebb;
      }

      .cls-16, .cls-4 {
        fill: #3b455a;
      }

      .cls-5 {
        fill: #080a0a;
        opacity: 0.26;
      }

      .cls-6 {
        fill: #fff;
      }

      .cls-7 {
        fill: #aa6755;
      }

      .cls-8 {
        fill: #eaeaea;
      }

      .cls-9 {
        fill: #534741;
      }

      .cls-10 {
        fill: #7b4f34;
      }

      .cls-11 {
        fill: #ebb044;
      }

      .cls-12 {
        fill: #e09431;
      }

      .cls-13 {
        fill: #7fc5a3;
      }

      .cls-14 {
        fill: #8c4229;
      }

      .cls-15 {
        fill: #d34e4e;
      }

      .cls-16 {
        opacity: 0.4;
      }

      .cls-17 {
        fill: #eca667;
      }

      .cls-18 {
        fill: #f17d9f;
      }

      .cls-19 {
        fill: #c13d3d;
      }

      .cls-20 {
        fill: #f7f7f7;
        opacity: 0.23;
      }

      .cls-21 {
        fill: #ff595b;
      }

      .cls-22 {
        fill: #5d66d3;
      }

      .cls-23 {
        fill: #ccd2d9;
      }

      .cls-24 {
        fill: #2c3442;
      }

      .cls-25 {
        fill: #333;
      }

      .cls-26 {
        fill: #dd992c;
      }

      .cls-27 {
        opacity: 0.16;
      }
    </style>
  </defs>
  <g id="Group_323" data-name="Group 323" transform="translate(-1076 -172)">
    <path id="Path_95" data-name="Path 95" class="cls-1" d="M325.962,628.29c-20.8.077-41.6.614-62.4,2.993-7.829.921-15.5,2.917-23.332,3.684-15.657,1.612-31.084,4.6-46.818,5.986-12.664,1.075-25.4,1.765-37.991,3.147a130.648,130.648,0,0,1-36.687-1.151c-8.673-1.612-17.422-2.533-26.018-5.142-9.594-2.917-19.955-4.989-29.933-4.912-14.2.077-28.091.154-41.675,5.219-4.759,1.765-10.592,4.759-14.276,8.519-8.289,8.673-9.44,30.24-1.151,39.219C19.651,700.973,49.43,706.883,69,707.19c21.413.307,42.289-1.382,63.78-2.3,19.955-.921,39.833-2.226,59.865-2.149,40.831.077,81.662,0,122.417-2.84,38.3-2.686,76.674-1.765,115.049-1.765,39.373,0,78.439.307,117.5,5.756,17.039,2.379,34.384,3.224,51.5,4.835,15.35,1.458,30.009,0,45.283-1.381a105.766,105.766,0,0,0,37.224-10.361c9.21-4.6,25.635-18.8,28.474-29.779C718,636.579,598.426,637.27,580.082,637.347c-20.569.077-41.215.767-61.784,0-8.6-.307-17.115-2.072-25.558-3.991-8.366-1.919-16.885-1.458-25.328-2.226-35.459-3.377-71.071-2.84-106.683-2.84C349.14,628.367,337.551,628.214,325.962,628.29Z" transform="translate(1075.989 25.932)"/>
    <g id="Group_213" data-name="Group 213" transform="translate(1089.416 297.638)">
      <path id="Path_96" data-name="Path 96" class="cls-2" d="M55.837,175.826a2.081,2.081,0,0,1,1.765,1.458,3.8,3.8,0,0,1-1.228,2.763c-2.686,3.3-5.756,6.447-7.215,10.208-.768,2.072-1.075,5.91-4.759,5.833a10.3,10.3,0,0,1-2.686-.307,9.119,9.119,0,0,1-1.919-1c-.461-.307-1.228-.691-1.3-1.151-.307-2.533,1.842-6.524,2.226-9.133.23-1.612,3.377-21.03,4.452-20.8,1.689.23,3.3.537,4.989.767.307.077.691.077.921.307a1.334,1.334,0,0,1,.461.844,19.953,19.953,0,0,1-.23,8.519,4.46,4.46,0,0,0-.153,2.226,1.838,1.838,0,0,0,2.226.921c.691-.307.844-1,1.458-1.382A2.125,2.125,0,0,1,55.837,175.826Z" transform="translate(-22.366 -163.697)"/>
      <path id="Path_97" data-name="Path 97" class="cls-3" d="M19.954,233.2c3.531-15.5,10.054-42.443,13.278-41.906a38.146,38.146,0,0,1,14.276,5.219c-2.533,10.9-6.37,22.411-5.3,33.693.921,9.21,10.054,11.052,17.653,12.127,10.668,1.535,20.8,2.917,31.7,3.531a3.3,3.3,0,0,1,2.072.614,2.77,2.77,0,0,1,.768,2.149,27.927,27.927,0,0,1-.077,5.066c-.614,6.294-2.456,12.587-6.37,17.5s-10.131,8.366-16.425,7.829c-3.607-.307-6.984-1.765-10.361-3.224-7.215-3.147-13.2-7.905-19.878-12.05A178.336,178.336,0,0,1,19.033,247.4a3.918,3.918,0,0,1-1.458-1.919,4.064,4.064,0,0,1,.077-1.919C17.882,242.644,18.726,238.653,19.954,233.2Z" transform="translate(-17.491 -170.112)"/>
    </g>
    <g id="Group_218" data-name="Group 218" transform="translate(1277.514 237.486)">
      <g id="Group_217" data-name="Group 217">
        <g id="Group_216" data-name="Group 216">
          <g id="Group_215" data-name="Group 215">
            <rect id="Rectangle_49" data-name="Rectangle 49" class="cls-4" width="265.326" height="416.064" transform="matrix(1, -0.006, 0.006, 1, 0, 1.507)"/>
            <path id="Path_98" data-name="Path 98" class="cls-5" d="M291.3,488.908h3.991l234.319,7.215L521.244,102.7l-10.9,3.761Z" transform="translate(-269.248 -89.363)"/>
            <rect id="Rectangle_50" data-name="Rectangle 50" class="cls-6" width="238.54" height="384.903" transform="matrix(1, -0.006, 0.006, 1, 13.443, 14.709)"/>
          </g>
        </g>
      </g>
    </g>
    <g id="Group_219" data-name="Group 219" transform="translate(1365.333 278.525)">
      <path id="Path_99" data-name="Path 99" class="cls-4" d="M394.8,144.4c2.072-4.068,2.226-4.528,3.147-5.219,1.382-.691,3.607-.46,4.528.691s.614,2-1.612,6.754a96,96,0,0,1-6.294,10.9c-.537,1-.691,1.3-.691,3.761a79.281,79.281,0,0,0,.691,12.664c.691,5.142-1.151,5.142-2.533,5.142-2.226,0-3.377-.921-4.068-3.147a54.467,54.467,0,0,1-.691-12.434c0-5.68.307-4.528-4.912-12.894-.23-.691-1.382-2.686-2.533-4.912-2.456-5.219-2.456-6.831-.23-6.6,1.382,0,2.763.23,3.454,1.151.461.46,6.984,11.743,6.984,11.973C390.041,153,393.878,146.013,394.8,144.4Z" transform="translate(-377.216 -138.794)"/>
      <path id="Path_100" data-name="Path 100" class="cls-4" d="M410.872,160.005c1.689-3.07,2.84-4.145,4.375-4.605,7.675.23,9.671,3.377,11.052,7.752a17.726,17.726,0,0,1,0,7.522c-2.226,8.9-9.594,10.668-12.894,10.131-6.37,0-6.37-6.37-6.217-8.443A25.544,25.544,0,0,1,410.872,160.005Zm8.75,9.287c.844-2.84.384-6.908-1-8.673a.946.946,0,0,0-.537-.154c-.844,0-3.454,4.835-4.375,8.519-.691,2.84-.23,6.908.461,6.754C418.547,174.741,418.931,171.518,419.622,169.292Z" transform="translate(-384.002 -142.655)"/>
      <path id="Path_101" data-name="Path 101" class="cls-4" d="M437.057,160.739c.384-2.379,1.151-4.835,1.765-5.449s3.224-.461,4.221.537c.614.614.614,1.458.23,5.833-.384,4.221-.384,14.122,0,13.892,4.528-1.842,6.217-14.276,6.6-17.5.23-1.458.537-1.842,1.612-2.226a4.681,4.681,0,0,1,4.835,1.842c.384.614.384.614,0,3.454-2.379,10.208,0,14.429,1.228,15.657,1.458,1.382.23,2.993-1.228,2.993a5.816,5.816,0,0,1-5.066-2.149c-.384-.384-.537-.614-.768-.614,0,0-.154.23-.384.614-1.458,2.61-2.379,3.838-3.991,4.605-3.914.844-6.217-.077-7.675-1.228-1.228-1.458-1.612-2.379-2-5.219C435.983,172.405,436.443,164.346,437.057,160.739Z" transform="translate(-390.77 -142.544)"/>
      <path id="Path_102" data-name="Path 102" class="cls-4" d="M380.452,244.087c2.456-11.513,3.454-14.813,4.452-15.811a3.5,3.5,0,0,1,1.612-.384c3.147-.307,3.454,2.226,3.224,4.221a5.272,5.272,0,0,0,.384,3.07c.23.768,2.072,5.68,3.454,9.978,2.226,6.524,2.61,7.752,2.993,7.752,1,.384,2.456-.23,2.84,1.458.768,2-1.765,2.149-1.765,2.149,0,.23,2,7.061,2,7.291-.077,3.377-6.14,2.917-6.294.614-.23-.384-2.379-6.677-2.379-6.677-.384-.23-5.066,1.612-5.526,1.612-.768.384-.614,0-1.458,4.682a15.586,15.586,0,0,1-.614,3.454c-2.379,2.686-7.061-.307-6.294-2.609A182.362,182.362,0,0,1,380.452,244.087Zm9.133,8.75-1.228-3.684c-.614-2-1.228-3.454-1.228-3.454a53.068,53.068,0,0,0-1.458,8.366A15.382,15.382,0,0,0,389.585,252.836Z" transform="translate(-376.991 -159.503)"/>
      <path id="Path_103" data-name="Path 103" class="cls-4" d="M415.587,248.6a9.881,9.881,0,0,1,4.528-4.375,7.522,7.522,0,0,1,3.914,0c3.914,1.228,3.607,3.147,3.224,3.838a2.465,2.465,0,0,1-2.61.768c-2.456-.691-3.147,1.228-4.144,2.609-1.535,2.917-1.689,6.37-2.533,13.585-.154,1.919-.537,3.531-.537,3.684-.307.691-4.452,2.993-5.987-1.151-.154-.307-1.765-15.273-1.765-16.962-.154-2.763-.077-2.84.23-3.147a3.524,3.524,0,0,1,3.454.23,2.019,2.019,0,0,1,1.228,1.151C414.973,249.9,414.9,249.978,415.587,248.6Z" transform="translate(-384.572 -163.245)"/>
      <path id="Path_104" data-name="Path 104" class="cls-4" d="M431.287,255.427c1.458-4.605,4.375-7.829,7.982-9.133,8.212-2.456,9.747,2.379,10.054,4.375-1,9.9-9.671,11.129-11.359,11.282-.768,0-.691,0-.537.691,1,5.066,7.445,4.3,8.212,4.452.921.537,1.919,1.458,1.919,2,0,2.149-5.6,2.84-9.747,1.151C429.829,267.554,430.673,257.423,431.287,255.427Zm9.671-.844a6.3,6.3,0,0,0,2-3.684c.154-.844,0-1-.537-.537a4.067,4.067,0,0,1-.691.537,17.767,17.767,0,0,0-2.917,3.377c-.307.844-1.075,2.84-1.075,2.84C437.888,257.269,440.037,255.658,440.958,254.583Z" transform="translate(-389.528 -163.629)"/>
      <path id="Path_105" data-name="Path 105" class="cls-4" d="M404.147,323.132c.384-4.835.614-5.3,1.458-5.68a8.13,8.13,0,0,1,3.838.154,3.038,3.038,0,0,1,1.919,2.993c0,3.991-3.147,25.635-4.835,33.847-.921,3.531-4.912,1.919-5.91.844-1.919-1.919-4.605-8.519-6.14-13.815-.23-1.228-.23-1.228-1.228,5.3-1.919,10.822-1.689,10.515-3.838,10.745-1.689.23-3.761-.614-4.375-2.149-.844-1.919-3.607-11.82-5.066-18.574s-2.609-15.043-2.379-16.5c.307-2.149,3.684-1,4.682-.154.844.614,1.074,1.458,2.149,7.138.844,4.221,1.689,8.289,2.533,11.666.23,1.458.384,1.919.614,1.228,0-.384,1-8.212,1.919-13.969l.461-3.838c3.684-2.763,5.756,0,6.14.614,1,1.842,5.526,19.264,5.526,19.264C401.691,342.166,403.533,329.5,404.147,323.132Z" transform="translate(-377.123 -180.295)"/>
      <path id="Path_106" data-name="Path 106" class="cls-4" d="M423.087,321.469c.23-2.84.23-3.147,1-3.377,1-.767,3.607-.23,4.375,1a6.244,6.244,0,0,1,.461,2.84c.23,2.149,1,15.35,1,16.808.23.461.461.307,1.458-1.688,1.919-2.84,2.379-3.607,3.607-4.375,5.68-1.919,7.445,1.919,8.212,3.147,1,1.919,2.149,8.826,2.379,14.429a10.872,10.872,0,0,0,.461,3.607c.23,1.228.077,1.919-.921,2.379-4.835,1.458-5.6-1.228-6.063-1.919a54.167,54.167,0,0,0-.921-12.434c-.461-2.379-1.151-2.149-2.072-.768-.921,1.765-2.993,5.756-4.452,13.738a2.845,2.845,0,0,1-.691,1.919c-1,1.228-3.684,1-5.3-.461-.768-1-.768-1-1-3.838A296.04,296.04,0,0,1,423.087,321.469Z" transform="translate(-387.697 -180.397)"/>
      <path id="Path_107" data-name="Path 107" class="cls-4" d="M463.167,338.062c2.149-2.149,2.917-2.84,4.145-3.224a7.937,7.937,0,0,1,4.6.307c1.842.767,2.379,2,1.765,3.224-.307.461-.384.537.307,1.151,1.228,1.151.844,2.763.844,4.605.154,4.759.307,5.833,1.919,12.28a4.448,4.448,0,0,1,.461,2.456c-.154,1-2.379,1.228-4.068.768-1.151-.461-1.612-.921-2.763-3.531,0-.307-.154-.691-.307-.691,0,0-.307.537-.614,1.151a6.907,6.907,0,0,1-3.377,3.531c-1.919,1-4.682.46-5.833,0-1.842-1-3.454-2.379-3.454-4.375A25.069,25.069,0,0,1,463.167,338.062Zm-.23,16.885c5.68-2.84,5.219-13.815,5.219-13.815a3.357,3.357,0,0,0-1,1,19.935,19.935,0,0,0-3.224,6.524,5.125,5.125,0,0,1-.691,1.765C462.936,351.187,462.553,355.1,462.936,354.948Z" transform="translate(-395.542 -184.327)"/>
      <path id="Path_108" data-name="Path 108" class="cls-4" d="M489.1,312.793a1.724,1.724,0,0,1,.844-1.612,3.817,3.817,0,0,1,3.991,1.919c.537,1.075.767,3.991.767,8.519s0,4.605,1.919,4.3c5.142-.614,5.066,2.149,4.835,2.917-.307.768-1.074,1-3.991,2.379-2.379.768-2.379.768-2.379,8.826v8.826c.307,1.382.307,1.3,1.381,1,2.379,0,3.991,1.382,3.991,2.993,0,2.609-3.991,3.377-7.982,2.379-4.452-1.382-4.3-4.759-4.3-12.51-.307-7.752-.23-7.752-1.612-7.752-1.919.307-3.224-.23-3.991-1.612-.537-.537-.537-.767,0-1.3.307-.768,2.149-1.919,4.528-2.993,1.382-.307,1.3-.23,1.3-3.684C488.334,320.544,488.564,314.4,489.1,312.793Z" transform="translate(-401.445 -178.858)"/>
      <path id="Path_109" data-name="Path 109" class="cls-4" d="M394.8,412.6c2.072-4.068,2.226-4.528,3.147-5.219,1.382-.691,3.607-.461,4.528.691s.614,2-1.612,6.754a96.007,96.007,0,0,1-6.294,10.9c-.537,1-.691,1.3-.691,3.761a79.281,79.281,0,0,0,.691,12.664c.691,5.142-1.151,5.142-2.533,5.142-2.226,0-3.377-.921-4.068-3.147a54.467,54.467,0,0,1-.691-12.434c0-5.68.307-4.528-4.912-12.894-.23-.691-1.382-2.686-2.533-4.912-2.456-5.219-2.456-6.831-.23-6.6,1.382,0,2.763.23,3.454,1.151.461.461,6.984,11.743,6.984,11.973C390.041,421.2,393.878,414.213,394.8,412.6Z" transform="translate(-377.216 -201.149)"/>
      <path id="Path_110" data-name="Path 110" class="cls-4" d="M410.872,428.205c1.689-3.07,2.84-4.145,4.375-4.605,7.675.23,9.671,3.377,11.052,7.752a17.726,17.726,0,0,1,0,7.522c-2.226,8.9-9.594,10.668-12.894,10.131-6.37,0-6.37-6.37-6.217-8.443A25.544,25.544,0,0,1,410.872,428.205Zm8.75,9.287c.844-2.84.384-6.908-1-8.673a.946.946,0,0,0-.537-.154c-.844,0-3.454,4.835-4.375,8.519-.691,2.84-.23,6.908.461,6.754C418.547,442.941,418.931,439.718,419.622,437.492Z" transform="translate(-384.002 -205.01)"/>
      <path id="Path_111" data-name="Path 111" class="cls-4" d="M437.057,429.039c.384-2.379,1.151-4.835,1.765-5.449s3.224-.461,4.221.537c.614.614.614,1.458.23,5.833-.384,4.221-.384,14.122,0,13.892,4.528-1.842,6.217-14.276,6.6-17.5.23-1.458.537-1.842,1.612-2.226a4.681,4.681,0,0,1,4.835,1.842c.384.614.384.614,0,3.454-2.379,10.208,0,14.429,1.228,15.657,1.458,1.382.23,2.993-1.228,2.993a5.816,5.816,0,0,1-5.066-2.149c-.384-.384-.537-.614-.768-.614,0,0-.154.23-.384.614-1.458,2.609-2.379,3.837-3.991,4.605-3.914.844-6.217-.077-7.675-1.228-1.228-1.458-1.612-2.379-2-5.219C435.983,440.628,436.443,432.646,437.057,429.039Z" transform="translate(-390.77 -204.923)"/>
      <path id="Path_112" data-name="Path 112" class="cls-4" d="M380,499.054c1.228-.614,6.14-1.689,11.282-2.533,4.221-.384,5.3-.461,6.831.614,1.689,1.382.614,3.07.154,3.147-5.91.614-12.894,1.689-12.894,1.689-.23,0-.23,7.061-.461,8.75,0,2.61,0,2.993.23,2.993.23.23,4.835-1.075,5.526-1.075,2.609,0,4.3,1.689,3.684,3.224-.384.844-4.452,2.149-8.519,2.993-1.075.23-1.075.154-1.075,3.377.23,3.607.461,5.3,1.075,6.831.614,1.688.461,1.688,3.838-1,1.688-1.228,2.84-1.688,4.682-1.075,1.919.614,2.533,1.919,1.689,3.607a12.035,12.035,0,0,1-4.452,4.068c-12.434,5.756-13.585-6.831-13.815-9.747-.461-7.061,1.228-22.334,1.458-23.179a.6.6,0,0,0,0-.844C378.927,500.359,379.388,499.438,380,499.054Z" transform="translate(-377.155 -221.904)"/>
      <path id="Path_113" data-name="Path 113" class="cls-4" d="M415.467,516.862c2.149-2.149,2.917-2.84,4.145-3.224a7.937,7.937,0,0,1,4.605.307c1.842.768,2.379,2,1.765,3.224-.307.46-.384.537.307,1.151,1.228,1.151.844,2.763.844,4.6.154,4.759.307,5.833,1.919,12.28a4.448,4.448,0,0,1,.461,2.456c-.154,1-2.379,1.228-4.068.767-1.151-.46-1.612-.921-2.763-3.53,0-.307-.154-.691-.307-.691,0,0-.307.537-.614,1.151a6.907,6.907,0,0,1-3.377,3.531c-1.919,1-4.682.46-5.833,0-1.842-1-3.454-2.379-3.454-4.375A25.068,25.068,0,0,1,415.467,516.862Zm-.23,16.885c5.68-2.84,5.219-13.815,5.219-13.815a3.358,3.358,0,0,0-1,1,19.935,19.935,0,0,0-3.224,6.524,5.126,5.126,0,0,1-.691,1.765C415.236,529.987,414.853,533.9,415.236,533.748Z" transform="translate(-384.452 -225.897)"/>
      <path id="Path_114" data-name="Path 114" class="cls-4" d="M441.4,491.693a1.724,1.724,0,0,1,.844-1.612A3.817,3.817,0,0,1,446.237,492c.537,1.075.767,3.991.767,8.519s0,4.605,1.919,4.3c5.142-.614,5.066,2.149,4.835,2.917-.307.768-1.074,1-3.991,2.379-2.379.768-2.379.768-2.379,8.826v8.826c.307,1.382.307,1.3,1.382,1,2.379,0,3.991,1.382,3.991,2.993,0,2.61-3.991,3.377-7.982,2.379-4.452-1.382-4.3-4.759-4.3-12.51-.307-7.752-.23-7.752-1.612-7.752-1.919.307-3.224-.23-3.991-1.612-.537-.537-.537-.768,0-1.3.307-.768,2.149-1.919,4.528-2.993,1.382-.307,1.3-.23,1.3-3.684C440.634,499.368,440.941,493.228,441.4,491.693Z" transform="translate(-390.355 -220.452)"/>
    </g>
    <g id="Group_238" data-name="Group 238" transform="translate(1458.899 320.458)">
      <g id="XMLID_15_" transform="translate(0 39.504)">
        <g id="XMLID_17_">
          <g id="Group_221" data-name="Group 221">
            <path id="Path_115" data-name="Path 115" class="cls-7" d="M517.013,265.009,513.1,259.1l1.3-6.14-1.151-.921-1.228,1.382-.384-5.373-2.917-3.147-5.68.844-4.145,4.3,1.458,5.68,4.759,4.912,4.989,8.289Z" transform="translate(-498.9 -244.9)"/>
          </g>
        </g>
        <g id="XMLID_16_" transform="translate(5.065 16.391)">
          <g id="Group_222" data-name="Group 222">
            <path id="Path_116" data-name="Path 116" class="cls-8" d="M594.991,273.121a11.057,11.057,0,0,1,3.454-.691c3.454-.154,6.831,1.842,9.057,4.528a24.753,24.753,0,0,1,4.375,9.44,59.926,59.926,0,0,1-2.3,38.068,14.831,14.831,0,0,1-2.61,4.528,15.086,15.086,0,0,1-5.68,3.531c-7.522,3.07-15.427,4.605-23.409,6.217-10.438,2.072-20.953,4.221-31.544,5.6-6.6.844-12.434-.384-16.808-5.68-7.6-9.287-8.6-22.488-12.434-33.463-3.838-11.206-7.752-22.411-11.589-33.693,3.531-1.228,11.359-5.68,15.427-5.219a4.156,4.156,0,0,1,1.151.307c2.379,1.151,6.831,14.276,8.673,17.192,2.917,4.528,6.908,12.127,11.589,15.043,4.375,2.84,10.515-2.993,14.583-5.3q16.923-9.555,34.154-18.574A22.843,22.843,0,0,1,594.991,273.121Z" transform="translate(-505.5 -266.257)"/>
          </g>
        </g>
      </g>
      <g id="Group_223" data-name="Group 223" transform="translate(95.41)">
        <path id="Path_117" data-name="Path 117" class="cls-7" d="M624.661,207.682a12.03,12.03,0,0,1,2.379-4.989c.307-.384.691-.691,1-1.075,10.975-13.431,34.307-10.745,38.452,11.052,2.226,11.666-5.142,24.253-15.734,28.321.384,3.07-.077,6.831,0,9.21a2.17,2.17,0,0,1-.307,1.382,1.8,1.8,0,0,1-1.075.537,15.912,15.912,0,0,1-11.359-1.765,2.391,2.391,0,0,1-.691-.537,1.713,1.713,0,0,1-.23-1.074,50.254,50.254,0,0,1,.154-7.6c-6.294-2.072-10.9-7.982-12.817-14.429A34.886,34.886,0,0,1,624.661,207.682Z" transform="translate(-623.212 -193.429)"/>
      </g>
      <g id="Group_228" data-name="Group 228" transform="translate(52.804 188.169)">
        <g id="Group_225" data-name="Group 225" transform="translate(15.502 145.672)">
          <g id="Group_224" data-name="Group 224">
            <path id="Path_118" data-name="Path 118" class="cls-4" d="M594.961,634.233l-5.142,5.372c-3.3,3.454-2.226,9.364,2.3,11.052,2.686,1,6.294.614,11.206-3.147l10.9-13.815-2.149-4.145-12.2-1.151Z" transform="translate(-587.898 -628.4)"/>
          </g>
        </g>
        <g id="Group_227" data-name="Group 227">
          <g id="Group_226" data-name="Group 226">
            <path id="Path_119" data-name="Path 119" class="cls-4" d="M601.7,438.6l-34,77.288,24.56,71.224,16.808-1.3,4.759-54.953s51.269-71.915,47.816-73.987C658.189,454.718,601.7,438.6,601.7,438.6Z" transform="translate(-567.7 -438.6)"/>
          </g>
        </g>
      </g>
      <g id="Group_233" data-name="Group 233" transform="translate(110.958 187.5)">
        <g id="Group_230" data-name="Group 230" transform="translate(52.023 154.938)">
          <g id="Group_229" data-name="Group 229">
            <path id="Path_120" data-name="Path 120" class="cls-9" d="M715.28,649.194l-3.3,6.677a6.836,6.836,0,0,0,5.526,9.9c2.84.154,10.745.614,14.276-4.452l1.688-18.343-3.3-3.377-12.05,2.533Z" transform="translate(-711.252 -639.6)"/>
          </g>
        </g>
        <g id="Group_232" data-name="Group 232">
          <g id="Group_231" data-name="Group 231">
            <path id="Path_121" data-name="Path 121" class="cls-4" d="M644.568,465.951c-4.6,9.287,6.6,32.849,9.287,42.059,2.993,10.285,4.528,26.786,10.438,35.766l36.226,55.03,15.657-6.217c-3.454-15.657-9.133-32-11.052-47.739-2.763-22.795,14.659-46.971,19.495-70,1.382-6.677,2.379-13.662.921-20.416-1.458-6.677-5.68-13.124-12.05-15.58-9.824-3.761-20.262,2.61-29.165,8.212-10.745,6.831-22.258,12.971-34.768,15.273A6.287,6.287,0,0,0,644.568,465.951Z" transform="translate(-643.47 -437.728)"/>
          </g>
        </g>
      </g>
      <g id="Group_235" data-name="Group 235" transform="translate(57.097 51.595)">
        <g id="Group_234" data-name="Group 234">
          <path id="Path_122" data-name="Path 122" class="cls-8" d="M676.6,274.351c16.732,13.662,23.1,36.917,27.17,58.714a536.592,536.592,0,0,1,7.445,58.484c.461,6.984.691,14.583-3.224,20.185-2.533,3.684-6.524,5.987-10.438,7.982a188.156,188.156,0,0,1-94.71,20.876c-3.607-.154-7.445-.537-10.438-2.686a19.359,19.359,0,0,1-5.219-6.6c-13.738-24.714-15.043-54.8-13.278-83.274,1.3-20.492,4.3-41.522,14.659-58.868C607.529,257.7,648.744,251.556,676.6,274.351Z" transform="translate(-573.293 -260.653)"/>
        </g>
      </g>
      <path id="Path_123" data-name="Path 123" class="cls-4" d="M627.642,237.878a5.359,5.359,0,0,0,.614,1.535c1.381,2.072,4.451,1.919,6.908,1.689a49.666,49.666,0,0,1,11.206.307,21.078,21.078,0,0,0,4.375.384c3.3-.23,10.515-9.517,12.2-5.91a3.057,3.057,0,0,1-.154,2.456c-.844,2.763-1.689,5.6-3.684,7.6-2.226,2.226-5.372,3.07-8.366,3.838a23.3,23.3,0,0,1-6.063,1,21.411,21.411,0,0,1-5.373-1c-6.754-1.842-15.043-4.759-16.425-12.971-.23-1.458.23-3.454,1.765-3.607,1.3-.153,2.3,1.151,2.61,2.379C627.411,236.42,627.488,237.187,627.642,237.878Z" transform="translate(-527.713 -202.672)"/>
      <g id="XMLID_12_" transform="translate(136.604 31.599)">
        <g id="XMLID_14_" transform="translate(76.148)">
          <g id="Group_236" data-name="Group 236">
            <path id="Path_124" data-name="Path 124" class="cls-10" d="M776.1,256.4l2.533-6.6-2.533-5.68.921-1.151,1.458,1.074-.768-5.3,2.226-3.761,5.756-.384,4.912,3.377-.154,5.833-3.607,5.833-3.147,9.133Z" transform="translate(-776.1 -234.6)"/>
          </g>
        </g>
        <g id="XMLID_13_" transform="translate(0 14.429)">
          <g id="Group_237" data-name="Group 237">
            <path id="Path_125" data-name="Path 125" class="cls-8" d="M752.035,253.553c-.154-.077-.384-.077-.537-.153-5.68,8.6-10.822,28.7-19.341,33.693-4.528,2.609-14.2,2.226-19.418,3.07-7.445,1.151-14.89,2.379-22.334,3.531a16.741,16.741,0,0,0-6.063,1.765,13.451,13.451,0,0,0-5.065,6.217c-2,4.221-3.07,8.98-1.919,13.508,1.689,6.908,10.361,15.58,17.346,16.808,4.835.844,9.824,0,14.659-1,6.6-1.3,13.124-2.763,19.648-4.375,6.908-1.689,14.122-3.761,19.418-8.519,3.607-3.147,6.063-7.368,8.519-11.436,5.756-9.594,19.8-41.982,4.375-49.274A50.517,50.517,0,0,0,752.035,253.553Z" transform="translate(-676.885 -253.4)"/>
          </g>
        </g>
      </g>
    </g>
    <g id="Group_243" data-name="Group 243" transform="translate(1607.31 240.753)">
      <g id="Group_242" data-name="Group 242">
        <g id="Group_241" data-name="Group 241">
          <g id="Group_239" data-name="Group 239" transform="translate(3.325 105.163)">
            <path id="Path_126" data-name="Path 126" class="cls-11" d="M830.222,252.081,699.67,254.844a2.571,2.571,0,0,1-2.609-2.533l-.461-22.795a.075.075,0,0,1,.077-.077l135.541-2.84a.075.075,0,0,1,.077.077l.46,22.795A2.568,2.568,0,0,1,830.222,252.081Z" transform="translate(-696.6 -226.6)"/>
            <path id="Path_127" data-name="Path 127" class="cls-12" d="M849.962,239.264l-.23-10.438a2.294,2.294,0,0,0-2.3-2.226l-6.984.154c-15.734,13.124-43.978,21.337-68.845,26.939l66.082-1.382A12.733,12.733,0,0,0,849.962,239.264Z" transform="translate(-714.037 -226.6)"/>
          </g>
          <path id="Path_128" data-name="Path 128" class="cls-13" d="M828.934,188.5l-128.48,2.686a.165.165,0,0,0-.154.154l.23,9.747a.165.165,0,0,0,.154.154l128.48-2.686a.165.165,0,0,0,.154-.154l-.23-9.747A.165.165,0,0,0,828.934,188.5Z" transform="translate(-694.135 -112.578)"/>
          <path id="Path_129" data-name="Path 129" class="cls-14" d="M842.6,221.667l11.9-.23a8.05,8.05,0,0,0,7.752-8.289l-.077-2.993a8.252,8.252,0,0,0-3.838-6.754C856.108,211.689,848.28,218.059,842.6,221.667Z" transform="translate(-727.219 -116.043)"/>
          <path id="Path_130" data-name="Path 130" class="cls-3" d="M826.415,182.513l-122.494,2.61c-2.379-1.689-3.838-3.147-3.914-4.912l-.307-13.2a3.285,3.285,0,0,1,3.07-3.3L825.264,161.1a3.227,3.227,0,0,1,3.224,3.147l.307,13.2C828.871,179.29,827.489,180.748,826.415,182.513Z" transform="translate(-693.996 -106.208)"/>
          <path id="Path_131" data-name="Path 131" class="cls-13" d="M832.285,167.052,826.529,156l-60.556,1.3-7.368.154-60.556,1.3-5.3,11.282c-2.686,5.756,6.524,6.908,9.44,4.989,1.228-.768,2.072-2,3.224-2.84,3.761-2.686,8.059-1.228,11.359,1.612,0,0,10.9,11.436,20.569.461,3.224-3.684,7.215-5.68,11.743-3.3,4.068,2.149,7.215,6.37,11.589,7.905,2.993,1.074,6.217,0,8.673-2.149,1.612-1.458,2.456-3.684,4.221-4.835a10.843,10.843,0,0,1,14.352,1.382c10.131,10.515,20.492-1.382,20.492-1.382,3.147-2.993,7.368-4.605,11.282-2.149,1.228.768,2.149,2,3.377,2.686C825.992,174.267,835.2,172.655,832.285,167.052Z" transform="translate(-692.268 -105.022)"/>
          <path id="Path_132" data-name="Path 132" class="cls-11" d="M696.6,145.239h0c-.537-25.558,27.63-54.877,64.317-55.644h0c36.687-.768,68.461,27.323,69,52.881h0Z" transform="translate(-693.273 -89.58)"/>
          <path id="Path_133" data-name="Path 133" class="cls-12" d="M821.161,105.6c-7.522,21.644-25.558,34.614-41.061,41.982l69.075-1.458C848.561,129.7,834.9,112.891,821.161,105.6Z" transform="translate(-712.688 -93.305)"/>
          <g id="Group_240" data-name="Group 240" transform="translate(40.177 9.419)">
            <path id="Path_134" data-name="Path 134" class="cls-6" d="M748.671,113.419c-1.3,1.612-2.917,2.456-3.684,1.919-.768-.614-.307-2.456,1-4.068s2.917-2.456,3.684-1.919C750.436,109.965,749.976,111.807,748.671,113.419Z" transform="translate(-744.615 -103.558)"/>
            <path id="Path_135" data-name="Path 135" class="cls-6" d="M811.334,112.7c-1.765,1.075-3.607,1.3-4.068.461s.537-2.379,2.3-3.454,3.607-1.3,4.068-.461C814.1,110.012,813.1,111.624,811.334,112.7Z" transform="translate(-759.155 -103.452)"/>
            <path id="Path_136" data-name="Path 136" class="cls-6" d="M780.736,112.765c-.384,2.072-1.458,3.607-2.379,3.454s-1.382-2-1-4.068,1.458-3.607,2.379-3.454C780.736,108.85,781.12,110.692,780.736,112.765Z" transform="translate(-752.196 -103.441)"/>
            <path id="Path_137" data-name="Path 137" class="cls-6" d="M765.774,103.731c1.382,1.535,2,3.377,1.3,3.991s-2.379-.077-3.761-1.612-2-3.377-1.3-3.991C762.7,101.428,764.393,102.119,765.774,103.731Z" transform="translate(-748.594 -101.852)"/>
            <path id="Path_138" data-name="Path 138" class="cls-6" d="M796.231,104.061c1.919.768,3.224,2.072,2.917,2.993s-2.149,1-4.145.307c-1.919-.768-3.224-2.072-2.917-2.993C792.47,103.447,794.312,103.37,796.231,104.061Z" transform="translate(-755.641 -102.259)"/>
          </g>
          <path id="Path_139" data-name="Path 139" class="cls-15" d="M731,192.6l33.924,9.057,20.876-.461C785.877,201.192,765.384,192.213,731,192.6Z" transform="translate(-701.273 -113.528)"/>
          <path id="Path_140" data-name="Path 140" class="cls-15" d="M830.159,220.764l-130.245,2.763a.2.2,0,0,1-.23-.23l-.384-18.8a.2.2,0,0,1,.23-.23L829.776,201.5a.2.2,0,0,1,.23.23l.384,18.8A.245.245,0,0,1,830.159,220.764Z" transform="translate(-693.903 -115.601)"/>
          <path id="Path_141" data-name="Path 141" class="cls-16" d="M772,203.321s32.465,8.9,42.366,16.118L831.558,202.4Z" transform="translate(-710.805 -115.81)"/>
          <path id="Path_142" data-name="Path 142" class="cls-11" d="M802.655,211.044,822.3,189.4l-97.7,2S769.115,193.621,802.655,211.044Z" transform="translate(-699.785 -112.788)"/>
          <path id="Path_143" data-name="Path 143" class="cls-12" d="M701.4,143.136S708.691,106.6,748.525,97.7C748.525,97.7,718.822,115.429,701.4,143.136Z" transform="translate(-694.391 -91.468)"/>
        </g>
      </g>
    </g>
    <g id="Group_246" data-name="Group 246" transform="translate(1105.596 475.853)">
      <g id="Group_245" data-name="Group 245" transform="translate(0 182.898)">
        <path id="Path_144" data-name="Path 144" class="cls-2" d="M60.938,660.218c-2.456.154-4.759-.691-7.138-1A120.242,120.242,0,0,1,56.64,634.2c3.761,4.145,6.908,1.765,6.754,9.517C63.317,646.25,60.4,656.381,60.938,660.218Z" transform="translate(-42.113 -634.2)"/>
        <path id="Path_145" data-name="Path 145" class="cls-4" d="M49.646,661.27c-2.84-1-3.454,5.756-3.454,7.291a11.769,11.769,0,0,1-.154,2.84,6.988,6.988,0,0,1-1.612,2.686c-1.382,1.689-2.763,3.454-4.068,5.142a8.246,8.246,0,0,0-1.535,2.456,5.235,5.235,0,0,0,2.686,6.14c7.6,3.838,14.506-5.449,16.118-11.513.23-.921.461-1.919.614-2.84.384-2,1.842-6.294,1.075-8.212-.921-2.226-3.684-.614-5.449-1.458C52.178,663.035,50.8,661.653,49.646,661.27Z" transform="translate(-38.573 -640.47)"/>
      </g>
      <path id="Path_146" data-name="Path 146" class="cls-4" d="M105.045,465.052c-7.061,19.188-15.2,37.991-19.8,58.023-5.756,24.79-14.966,49.044-19.725,73.911a61.645,61.645,0,0,1-9.21-.384c-3.454-.384-9.057-1.381-10.285-5.142-.614-1.919.077-5.142.154-7.138.307-6.447.768-12.971,1.228-19.418,1.382-18.343,2.3-36.84,5.6-54.877C56.538,491.07,59.915,471.959,63.062,453c1.612-9.824,3.607-19.571,6.063-29.242.614-2.456,7.215-28.091,8.443-27.86a119.977,119.977,0,0,1,42.827,15.35,6.122,6.122,0,0,1,2.993,3.07A5.286,5.286,0,0,1,123,418.08c-3.991,11.82-9.287,22.872-13.508,34.614C108.115,456.763,106.58,460.83,105.045,465.052Z" transform="translate(-40.246 -395.898)"/>
    </g>
    <g id="Group_248" data-name="Group 248" transform="translate(1169.088 474.091)">
      <g id="Group_247" data-name="Group 247" transform="translate(4.517 182.819)">
        <path id="Path_147" data-name="Path 147" class="cls-2" d="M128.4,655.286c2.3.921,4.759.767,7.138,1.228A122.2,122.2,0,0,0,140.22,631.8c-4.835,2.84-7.061-.384-9.287,7.061C130.165,641.317,130.012,651.755,128.4,655.286Z" transform="translate(-127.466 -631.8)"/>
        <path id="Path_148" data-name="Path 148" class="cls-4" d="M137.634,659.733c0,4.6,3.607,9.517,5.6,13.662a3.574,3.574,0,0,1,.46,1.535,3.857,3.857,0,0,1-.921,2.149A5.983,5.983,0,0,1,140.4,679.3a5.755,5.755,0,0,1-3.224,0,45.335,45.335,0,0,1-5.3-1.458,5.946,5.946,0,0,1-1.228-.537,4.013,4.013,0,0,1-.921-1.3c-1.228-2.456-2.3-4.221-2.226-6.984.077-2.84.461-5.833-.077-8.673-.23-1.381-.614-3.147.614-3.914.921-.614,2.61.23,3.607.384,1.765.307,3.377.154,4.989,1.075a1.989,1.989,0,0,1,.844.767A4.531,4.531,0,0,1,137.634,659.733Z" transform="translate(-127.183 -637.476)"/>
      </g>
      <path id="Path_149" data-name="Path 149" class="cls-4" d="M124.369,452.775c1,20.416,3.224,40.754,1.689,61.324-1.919,25.4-.307,51.269-3.147,76.443a69.062,69.062,0,0,0,8.9,2.379c3.454.614,9.057,1.382,11.359-1.842,1.228-1.688,1.458-4.912,2-6.831,1.612-6.294,3.147-12.587,4.605-18.957,4.145-17.883,8.75-35.842,10.975-54.109,2.3-19.188,4.682-38.375,7.368-57.409,1.382-9.824,2.379-19.725,2.917-29.7.154-2.533,1.535-28.935.23-29.165a120.745,120.745,0,0,0-45.436,1.919,6.431,6.431,0,0,0-3.761,2,5.663,5.663,0,0,0-.768,3.684c.307,12.434,2.072,24.56,2.61,37.07C123.909,443.949,124.139,448.323,124.369,452.775Z" transform="translate(-121.298 -393.601)"/>
    </g>
    <path id="Path_150" data-name="Path 150" class="cls-3" d="M102.74,256.621c-.23.077-.46.154-.768.23-4.068,1.535-7.6,4.375-10.975,7.138-5.142,4.145-7.675,5.987-9.671,12.127a155.026,155.026,0,0,0-4.145,17.653c-5.833,30.316-6.908,60.4-11.129,90.949-1.151,8.289-2,18.036,4.145,23.793,10.9-8.443,24.56-8.98,37.838-8.98,9.287,0,18.343-2.993,27.63-2,8.9,1,16.655-1.228,25.711-.614,2.149.154,4.912.154,5.833-1.919-3.147-9.364-3.07-19.418-3.761-29.242-1.842-25.481-10.285-49.888-13.662-75.139-1.151-8.6-1.765-22.872-8.443-29.4-7.215-7.061-23.716-7.215-33-5.833A26.97,26.97,0,0,0,102.74,256.621Z" transform="translate(1060.824 112.781)"/>
    <g id="Group_252" data-name="Group 252" transform="translate(1124.165 286.654)">
      <g id="Group_251" data-name="Group 251">
        <g id="Group_250" data-name="Group 250" transform="translate(35.59 21.565)">
          <g id="Group_249" data-name="Group 249" transform="translate(0 10.085)">
            <path id="Path_151" data-name="Path 151" class="cls-2" d="M119.854,241.338a3.408,3.408,0,0,0,.614.844,7.445,7.445,0,0,0,4.068,1.919,19.2,19.2,0,0,0,5.91-.384c2.61-.537,2.533-2.072,2.917-4.452.23-1.3.307-2.609.461-3.914.077-.691-.23-3.3.23-3.838.307-.307,1.612-.23,2.149-.537a6.394,6.394,0,0,0,2.149-2.149,16.864,16.864,0,0,0,1.765-4.375c.768-2.609,1.612-5.219,2.379-7.905a42.585,42.585,0,0,0,1.919-8.212c.384-4.221-.307-10.131-3.454-13.2-2.917-2.84-7.138-3.761-10.975-4.3a22.952,22.952,0,0,0-14.89,2.993,12.2,12.2,0,0,0-4.528,4.528c-1.612,2.993-1.535,6.831-1.3,10.361.153,3.224.307,6.524.46,9.747.154,3.761.691,8.059,3.454,10.131,1.458,1.075,3.454,1.3,4.682,2.686,1.612,1.765,1.458,4.3,1.535,6.524A7.609,7.609,0,0,0,119.854,241.338Z" transform="translate(-109.138 -190.624)"/>
          </g>
          <path id="Path_152" data-name="Path 152" class="cls-4" d="M140.516,196.146l.461.921c.614,1.765.23,3.684.767,5.449.921,2.763,4.145,4.375,4.605,7.291.384,2.3-1.228,4.528-1.3,6.908-.153,2.609,1.535,5.066,1.228,7.6a17.174,17.174,0,0,1-2.917,7.138c.384-.537,4.145-.384,5.066-.921,1.458-.921,1.612-1.458,2.072-2.993s.077-2.993.767-4.605c.844-1.919,2.533-3.3,3.147-5.373.844-2.763-.691-5.756-.537-8.673.154-4.375,3.991-8.519,2.61-12.741-.844-2.456-3.224-3.991-4.528-6.217-1-1.689-1.382-3.684-2.072-5.449-.691-1.842-1.919-3.684-3.838-4.221-1.075-.307-2.149-.154-3.224-.384-1.842-.307-3.377-1.612-5.142-2.226-2.533-.844-7.061,1.689-8.519,3.914-1.458,2.149-.768,3.991.767,5.91C132.38,190.467,138.444,192.539,140.516,196.146Z" transform="translate(-113.606 -177.483)"/>
        </g>
        <path id="Path_153" data-name="Path 153" class="cls-4" d="M96.544,181.889c-1.535,1.151-3.454,1.919-4.835,3.224-2.686,2.533-3.224,6.677-3.377,10.361-.077,3.3-1.535,6.294-1.151,9.747a8.45,8.45,0,0,0,3.147,6.063c2.379,1.689,6.063,2,7.138,4.682,1.151,2.917-1.919,6.677-.077,9.21,1,1.382,3.07,1.612,4.528,2.61,1.612,1.075,2.456,2.993,3.454,4.605,1,1.689,2.533,3.377,4.452,3.377.077-2.993.153-5.3-1.075-8.059-.768-1.612-2.917-4.528-1.228-6.217,1.075-1.458,3.531-1.919,3.607-3.684a4.2,4.2,0,0,0-1-2.226,10.28,10.28,0,0,1-.768-9.21,13.324,13.324,0,0,1,6.524-6.754c3.377-1.612,2.84-2.456,3.838-5.68.921-2.993,2.61-3.684,5.3-4.759,2.379-1,3.224-1.612,4.068-3.838.614-1.689,1.458-3.607.537-5.449a11.393,11.393,0,0,0-3.377-3.531c-2.763-2.072-5.833-4.3-9.21-4.068-1.919.153-3.684,1-5.6,1.151-1.3.077-2.533-.23-3.838-.23a10.113,10.113,0,0,0-6.217,1.919c-1.765,1.3-1.689,2.686-2.686,4.528A7.432,7.432,0,0,1,96.544,181.889Z" transform="translate(-68.428 -154.708)"/>
        <path id="Path_154" data-name="Path 154" class="cls-4" d="M98.635,164.44c.307-2.072.154-4.759-1.842-5.449-1.075-.384-2.3,0-3.377-.23-2.379-.46-3.224-3.377-4.452-5.449a1.5,1.5,0,0,0-.768-.768c-.461-.23-1,0-1.535.077-2.379.307-4.221-2.072-6.447-2.917a5.666,5.666,0,0,0-7.138,3.531c-.307,1.151-.307,2.456-.614,3.607-1.3,4.759-8.289,6.831-8.443,11.743-.153,3.3,3.147,6.524,1.842,9.594-.844,2-3.377,3.3-3.07,5.449a2.923,2.923,0,0,0,2.993,2.3,5.851,5.851,0,0,0,3.684-1.689c1.612-1.458,2.917-3.3,4.452-4.759,1.535-1.535,3.684-2.763,5.833-2.456,2.072.23,3.991,1.919,6.063,1.535,1.689-.307,2.917-1.765,4.528-2.149,1.535-.384,3.147.23,4.682.307,1.612.077,3.531-.691,3.531-2.3a5.771,5.771,0,0,1,0-1.151c.307-1,2.072-1,2.379-2-.844-1.3-2-.844-2.61-2.456A11.7,11.7,0,0,1,98.635,164.44Z" transform="translate(-62.767 -149.386)"/>
      </g>
    </g>
    <g id="Group_253" data-name="Group 253" transform="translate(1181.861 348.322)">
      <path id="Path_155" data-name="Path 155" class="cls-2" d="M223.807,229.785a7.023,7.023,0,0,0-1.228.077,1.141,1.141,0,0,0-.691.154c-.23.077-.384.307-.537.461a27.81,27.81,0,0,0-4.068,6.6c-.461.921-.537.921-.077,1.842.461,1.074,1.074,2.072,1.612,3.07.307,1.535.614,3.07.768,4.605.384,3.914-3.07,12.587,1.535,14.583a8.864,8.864,0,0,0,2.763.844,7.189,7.189,0,0,0,2.226-.461c.537-.23,1.535-.384,1.765-.921.307-.614-.077-2.3-.077-2.993-.077-2-.154-3.991-.154-5.987-.077-2,.077-4.3,1.535-5.3a7.785,7.785,0,0,0,1-.691,3.2,3.2,0,0,0,.691-1.228,27.5,27.5,0,0,0,1.458-5.066c.23-1.612-.614-2.379-1.458-3.684s-.844-2.917-1.535-4.221c-.691-1.382-2-1.612-3.454-1.612A6.273,6.273,0,0,0,223.807,229.785Z" transform="translate(-156.297 -229.734)"/>
      <path id="Path_156" data-name="Path 156" class="cls-3" d="M208.98,311.054c.691-4.145,1.228-8.443,2.149-12.741a132.768,132.768,0,0,0,2.3-36.994,37.562,37.562,0,0,0-15.734-.767c-2.149-.307-5.6,35.152-7.752,36.073s-4.759,0-6.524-1.612-2.763-3.761-3.914-5.833c-4.682-8.75-10.975-16.578-17.576-23.869-2.917-3.224-6.831-6.677-11.129-5.756-3.531.768-5.68,4.3-7.138,7.6a65.744,65.744,0,0,0-5.449,20.109,32.916,32.916,0,0,0,.384,10.975c2.379,9.517,11.82,17.883,17.96,25.251,7.522,8.98,17.269,17.346,27.937,22.334a7.043,7.043,0,0,0,2.149.691,6.745,6.745,0,0,0,3.377-1.074C203.147,338.07,206.755,325.253,208.98,311.054Z" transform="translate(-137.94 -236.632)"/>
    </g>
    <g id="XMLID_8_" transform="translate(1431.27 601.96)">
      <path id="XMLID_9_" class="cls-11" d="M508.029,560.815c-.23,0-.384.077-.614.077.077.307.077.614.154.921a11.873,11.873,0,0,1-.614,5.142c-2.072,5.6-8.289,10.822-13.738,8.673-.768-.307-1.535.537-2.149.077a10.33,10.33,0,0,1-.691,4.3,10.657,10.657,0,0,1-6.984,6.6,10.49,10.49,0,0,1-4.375.307c1.919,2.072,3.224,2.3,3.454,5.142a12.634,12.634,0,0,1-.691,5.3,11.986,11.986,0,0,1-15.887,6.754,10.868,10.868,0,0,1-1.381-.614h-.077c-6.294,26.479,7.215,53.035,32.312,63.089,27.246,10.9,57.793-3.224,68.385-31.544a61.686,61.686,0,0,0,3.147-12.587c3.147-24.56-10.054-49.12-33.31-58.407A49.966,49.966,0,0,0,508.029,560.815Zm14.122,37.224a18.29,18.29,0,0,1,11.282,17.269,16.789,16.789,0,0,1-1.228,6.37,17.486,17.486,0,0,1-22.795,10.515c-9.057-3.607-13.585-14.2-10.054-23.639v-.077A17.507,17.507,0,0,1,522.151,598.039Z" transform="translate(-462.9 -560.206)"/>
    </g>
    <path id="Path_157" data-name="Path 157" class="cls-17" d="M526,560.439c22.027,16.5,46.05,42.9,50.579,81.432a64.287,64.287,0,0,0,3.147-6.984,61.68,61.68,0,0,0,3.147-12.587c3.147-24.56-10.054-49.12-33.31-58.407A51.63,51.63,0,0,0,526,560.439Z" transform="translate(953.699 41.747)"/>
    <g id="XMLID_2_" transform="translate(1427.185 601.246)">
      <path id="XMLID_7_" class="cls-18" d="M514,560.154c.077.307.077.614.154.921.154-.307.307-.691.461-1.075C514.384,560.077,514.23,560.077,514,560.154Z" transform="translate(-470.696 -559.444)"/>
      <g id="XMLID_3_">
        <path id="XMLID_4_" class="cls-15" d="M501.5,559.832c-.154.384-.307.691-.461,1.075a11.871,11.871,0,0,1-.614,5.142,10.408,10.408,0,0,1-13.662,6.217,11.584,11.584,0,0,1-2.149-1.151,10.33,10.33,0,0,1-.691,4.3,10.657,10.657,0,0,1-6.984,6.6,10.492,10.492,0,0,1-4.375.307,12.774,12.774,0,0,1,3.377,7.6,12.633,12.633,0,0,1-.691,5.3,11.986,11.986,0,0,1-15.887,6.754,10.875,10.875,0,0,1-1.382-.614c-2.917,24.407,10.285,48.66,33.386,57.87,27.246,10.9,57.793-3.224,68.385-31.544.767-2.072,12.74-48.506-31.391-64.547A52.044,52.044,0,0,0,501.5,559.832Zm14.045,37.224a18.29,18.29,0,0,1,11.282,17.269,16.789,16.789,0,0,1-1.228,6.37A17.486,17.486,0,0,1,502.8,631.209c-9.057-3.607-13.585-14.2-10.054-23.639v-.077C496.354,598.13,506.485,593.448,515.541,597.056Z" transform="translate(-457.578 -559.276)"/>
      </g>
    </g>
    <path id="XMLID_1_" class="cls-18" d="M514,560.154c.077.307.077.614.154.921.154-.307.307-.691.461-1.075C514.384,560.077,514.23,560.077,514,560.154Z" transform="translate(956.489 41.802)"/>
    <path id="Path_158" data-name="Path 158" class="cls-19" d="M524.4,559.3c20.032,14.736,42.136,37.838,49.811,70.764.384-.844.691-1.765,1.075-2.609.768-2.072,12.741-48.506-31.391-64.547A56.755,56.755,0,0,0,524.4,559.3Z" transform="translate(954.071 41.965)"/>
    <path id="Path_159" data-name="Path 159" class="cls-20" d="M469.706,620.83l-5.142-.23c0,.384-.077.767-.077,1.151-1.074,26.479,18.727,48.89,44.208,49.888a44.775,44.775,0,0,0,28.551-8.75,45.09,45.09,0,0,1-23.255,5.449C489.2,667.341,469.86,646.311,469.706,620.83Z" transform="translate(968.01 27.713)"/>
    <path id="Path_161" data-name="Path 161" class="cls-13" d="M489.451,593.2l2.763.384-1.075,9.057-2.84-.384Z" transform="translate(962.464 34.083)"/>
    <path id="Path_163" data-name="Path 163" class="cls-6" d="M547.433,584.917l-2.533-1.3,3.761-8.212,2.533,1.228Z" transform="translate(949.305 38.222)"/>
    <path id="Path_164" data-name="Path 164" class="cls-6" d="M480.356,642.287l-2.456-1.535L482.505,633l2.379,1.535Z" transform="translate(964.882 24.83)"/>
    <path id="Path_165" data-name="Path 165" class="cls-11" d="M565.619,606.989l-1.919-2.226,6.677-6.063,1.842,2.226Z" transform="translate(944.934 32.805)"/>
    <path id="Path_166" data-name="Path 166" class="cls-13" d="M570.831,644.405l-2.456,1.535L564,637.958l2.533-1.458Z" transform="translate(944.864 24.016)"/>
    <path id="Path_167" data-name="Path 167" class="cls-11" d="M524.831,585.505l-2.456,1.458L518,579.058l2.533-1.458Z" transform="translate(955.559 37.71)"/>
    <path id="Path_168" data-name="Path 168" class="cls-21" d="M283.629,57.772c-16.194-11.129-33-8.136-44.745-3.224a34.314,34.314,0,0,1-26.709-.077c-11.9-4.912-29.012-7.982-45.359,3.607C144.941,73.659,140.8,101.059,145.478,126c3.454,18.42,9.978,37.531,20.953,53.111,10.592,15.043,30.623,31.007,50.272,24.253a27.119,27.119,0,0,1,18.42.077c28.4,10.592,49.044-21.567,58.791-43.057,10.208-22.488,17.269-50.118,9.978-74.448A51.756,51.756,0,0,0,283.629,57.772Z" transform="translate(1042.569 160.355)"/>
    <path id="Path_169" data-name="Path 169" class="cls-22" d="M246.07,27.477A37.614,37.614,0,0,1,259.5,10.285,51.274,51.274,0,0,1,276.77,2.84,106.715,106.715,0,0,1,291.89,0a84.409,84.409,0,0,1-4.835,13.815,108.881,108.881,0,0,1-9.824,19.034c-3.991,5.91-9.057,11.129-14.506,13.738C251.519,51.96,240.7,42.366,246.07,27.477Z" transform="translate(1019.111 172)"/>
    <g id="Group_266" data-name="Group 266" transform="translate(1205.375 464.114)">
      <path id="Path_170" data-name="Path 170" class="cls-23" d="M271.216,463.375c28.167-3.761,28.4,33.463,31.161,52.728.921,6.6,2.533,13.738,2.533,20.416,0,5.373-1.458,10.592-1,16.041.307,4.221,2.149,8.75,6.217,10.438,2,.844,4.3.921,6.37,1.765,2,.844,3.761,3.147,2.763,4.989a4.929,4.929,0,0,1-2.379,1.919l-14.966,8.059a86.019,86.019,0,0,1-11.743,5.526,66.337,66.337,0,0,1-18.19,2.993,156.766,156.766,0,0,1-47.432-4.989c-5.756-1.535-15.2-5.526-15.964-12.587-.23-2.379.537-4.759,1.228-6.984l18.42-55.951c5.142-15.657,7.6-38.222,25.865-44.055C259.857,461.84,264.922,464.219,271.216,463.375Z" transform="translate(-177.869 -399.751)"/>
      <g id="Group_259" data-name="Group 259" transform="translate(0 159.798)">
        <path id="Path_171" data-name="Path 171" class="cls-4" d="M292.264,677.932a150.371,150.371,0,0,0,15.273,5.449,26.38,26.38,0,0,0,8.443,1.458c6.677-.307,11.513-7.752,5.3-12.587a31.254,31.254,0,0,0-8.98-4.989c-4.759-1.765-2,2-3.454,5.219-1.689,3.684-2.993,3.607-6.447,2.072-4.452-2-7.291-4.375-12.434-3.991-1.381.077-3.07.46-3.607,1.765a2.806,2.806,0,0,0,.768,2.917,9.886,9.886,0,0,0,2.686,1.689C290.652,677.241,291.42,677.548,292.264,677.932Z" transform="translate(-195.924 -606.943)"/>
        <path id="Path_172" data-name="Path 172" class="cls-2" d="M306.4,674.922c1.458.077,2.84.154,4.3.23,1.535.077,3.3.077,4.452-.921,1.382-1.3,1.228-3.684.077-5.219a9.492,9.492,0,0,0-4.835-2.916,51.131,51.131,0,0,0-13.662-2,4.248,4.248,0,0,0-1.382.154,2.964,2.964,0,0,0-1.458,1.842C291.506,674,300.869,674.615,306.4,674.922Z" transform="translate(-197.622 -606.312)"/>
        <path id="Path_173" data-name="Path 173" class="cls-4" d="M310.948,629.871c-1.074-9.057-5.6-16.271-13.969-20.185-6.831-3.224-14.429-3.914-21.874-4.912-16.578-2.149-32.465-4.221-49.2-3.607-13.431.537-21.644,11.973-27.937,23.255-3.991,7.138-2.84,10.438,2.149,16.425a59.471,59.471,0,0,0,16.348,13.662c12.28,6.984,31.237,5.3,44.822,3.761a104.89,104.89,0,0,0,36.763-11.206C305.345,643.226,312.022,638.7,310.948,629.871Z" transform="translate(-174.851 -591.655)"/>
        <g id="Group_258" data-name="Group 258">
          <path id="Path_174" data-name="Path 174" class="cls-2" d="M238.279,689.972a3.3,3.3,0,0,0,.154,1.919,2.1,2.1,0,0,0,1,1c2.993,1.919,6.984-.154,9.21-2.84,2.3-2.686,3.838-6.063,6.677-8.059,6.6-4.528.537-12.894-6.37-10.975C240.812,673.241,239.123,682.911,238.279,689.972Z" transform="translate(-184.766 -607.855)"/>
          <g id="Group_257" data-name="Group 257">
            <path id="Path_175" data-name="Path 175" class="cls-4" d="M329.88,627.868c5.756-4.221,11.436-8.98,13.508-16.041s-.844-17.115-8.212-21.183c-8.98-4.989-17.806,1.151-24.253,6.908-13.124,11.82-27.477,22.258-41.445,33.079-4.759,3.684-21.183,17.115-21.183,17.115-.461,1.919,8.366,19.034,10.745,18.42C284.6,659.412,309.388,642.911,329.88,627.868Z" transform="translate(-187.106 -588.807)"/>
            <path id="Path_176" data-name="Path 176" class="cls-4" d="M182.793,638.275c-5.6-2.763-11.206-5.987-13.431-12.587-2.226-6.524.307-17.346,7.215-23.332,8.443-7.291,17.115-3.454,23.409.614,12.971,8.443,26.939,15.2,40.678,22.334,4.605,2.456,20.723,11.666,20.723,11.666.461,1.765-7.445,21.26-9.671,21.183C227.078,658.077,202.825,648.022,182.793,638.275Z" transform="translate(-168.576 -591.002)"/>
          </g>
        </g>
        <path id="Path_177" data-name="Path 177" class="cls-4" d="M235.078,672.264a138.571,138.571,0,0,0-5.526,15.2,24.317,24.317,0,0,0-1.458,8.366c.23,6.677,7.675,11.513,12.587,5.373a33.434,33.434,0,0,0,5.066-8.98c1.765-4.759-2-2-5.142-3.454-3.684-1.688-3.607-2.993-2-6.447,2-4.452,4.375-7.291,4.068-12.357-.077-1.381-.461-3.07-1.765-3.607a2.931,2.931,0,0,0-2.917.691,8,8,0,0,0-1.689,2.686A18.789,18.789,0,0,0,235.078,672.264Z" transform="translate(-182.409 -606.801)"/>
      </g>
      <g id="Group_265" data-name="Group 265" transform="translate(41.464)">
        <g id="Group_260" data-name="Group 260" transform="translate(25.877 28.772)">
          <path id="Path_178" data-name="Path 178" class="cls-24" d="M259.3,433.524a50.9,50.9,0,0,0,8.212,11.129,88.62,88.62,0,0,1-1.458-24.253,2.318,2.318,0,0,0-.307-1.765,1.981,1.981,0,0,0-1.612-.537C253.848,417.791,255.383,426.463,259.3,433.524Z" transform="translate(-256.316 -418.09)"/>
        </g>
        <g id="Group_261" data-name="Group 261" transform="translate(30.114 13.058)">
          <path id="Path_179" data-name="Path 179" class="cls-2" d="M279.154,397.757c-24.79-2.533-17.729,29.7-10.668,42.366a17.454,17.454,0,0,0,5.756,6.6c.461.307-1,5.526-1.151,6.217-.461,1.842-1.689,3.914.307,5.219a6.043,6.043,0,0,0,2.84.768,16.084,16.084,0,0,0,3.838-.154,8.18,8.18,0,0,0,3.761-1.3c3.147-2.226,1.689-7.752,1.612-11.052a14.863,14.863,0,0,0,2.072-1.612C296.193,436.823,306.477,400.52,279.154,397.757Z" transform="translate(-261.837 -397.616)"/>
        </g>
        <g id="Group_264" data-name="Group 264">
          <g id="Group_262" data-name="Group 262" transform="translate(56.564 10.731)">
            <path id="Path_180" data-name="Path 180" class="cls-4" d="M296.837,435.351c2,1.919,5.373.691,7.6-1,9.21-6.908,12.894-20.185,8.673-30.854-3.531-8.9-16.5-13.738-16.808-1.842-.077,4.221,3.377,9.44,3.684,14.045C300.367,422.3,298.449,429.057,296.837,435.351Z" transform="translate(-296.298 -394.584)"/>
          </g>
          <g id="Group_263" data-name="Group 263">
            <path id="Path_181" data-name="Path 181" class="cls-4" d="M244.244,386.741c-10.361,8.9-12.664,24.176-21.644,34.384a40.235,40.235,0,0,0,31.007-5.6c8.826-5.833,31.161-12.894,25.4-25.558C273.1,377.07,253.3,378.989,244.244,386.741Z" transform="translate(-222.6 -380.602)"/>
          </g>
        </g>
      </g>
    </g>
    <g id="Group_270" data-name="Group 270" transform="translate(1173.2 450.293)">
      <g id="Group_269" data-name="Group 269">
        <g id="Group_268" data-name="Group 268">
          <path id="Path_182" data-name="Path 182" class="cls-13" d="M160.462,386.028a14.525,14.525,0,0,1-7.215-1.228c1.612.691-.537,17.115-.691,19.111-.307,3.147-4.068,17.039,4.068,12.28,3.607-2.149,1.765-7.291,1.689-10.592C158.083,399.076,159.388,392.475,160.462,386.028Z" transform="translate(-132.414 -367.757)"/>
          <g id="Group_267" data-name="Group 267">
            <path id="Path_183" data-name="Path 183" class="cls-13" d="M151.557,414.482l-7.291-50.655s-4.3-3.684-7.215,1.688,8.136,45.129,8.136,45.129Z" transform="translate(-128.958 -362.595)"/>
            <path id="Path_184" data-name="Path 184" class="cls-13" d="M149.561,416.787l-17.729-40.908s-4.221-2.072-5.142,3.224,17.039,36,17.039,36Z" transform="translate(-126.655 -365.59)"/>
          </g>
        </g>
        <path id="Path_185" data-name="Path 185" class="cls-11" d="M251.571,558.878c-9.747-3.914-18.881-8.519-21.567-9.9-32.926-16.425-62.552-40.6-80.358-71.148-7.291-12.51-16.962-29.472-13.2-43.824,4.989-19.188,26.479-19.495,40.678-6.754,9.057,8.135,13.892,20.262,19.341,30.393,7.138,13.431,14.276,26.939,23.179,39.526,14.736,20.8,33.233,42.136,55.337,56.8,1.919,1.3,5.756,5.449,5.066,7.829C278.2,567.935,264.312,564.021,251.571,558.878Z" transform="translate(-128.736 -375.594)"/>
        <path id="Path_186" data-name="Path 186" class="cls-12" d="M184.375,493.065c-.537.154-1.3,0-1.382-.461-.077-.23.077-.461.23-.691a13.654,13.654,0,0,1,3.454-2.84c4.3-2.84,8.9-5.449,12.971-8.673,1.458-1.151,9.057-8.136,7.829-9.9,4.989,7.291,4.605,8.443-3.147,13.585a49.721,49.721,0,0,1-9.978,4.759c-3.147,1.3-6.6,3.3-9.978,4.221Z" transform="translate(-139.749 -387.682)"/>
        <path id="Path_187" data-name="Path 187" class="cls-12" d="M193.229,512.937a3.51,3.51,0,0,0,.691-1.535,1.382,1.382,0,0,0-1-1.3,1.932,1.932,0,0,0-1.535.691c-3.991,3.531-8.136,7.368-13.738,8.059a3.493,3.493,0,0,0-1.535.384.961.961,0,0,0-.537,1.228,1.876,1.876,0,0,0,.844.691c2,1.151,1.842,1.919,4.068,1.458a18.407,18.407,0,0,0,4.912-2.456A26.188,26.188,0,0,0,193.229,512.937Z" transform="translate(-138.011 -396.886)"/>
        <path id="Path_188" data-name="Path 188" class="cls-12" d="M199.541,470.675c-1.535,1.228-3.224,2.533-5.373,2.61-.461-1.151.691-2.226,1.689-2.993,3.991-3.147,6.908-6.831,10.054-10.592C210.977,462.77,201.843,468.833,199.541,470.675Z" transform="translate(-142.328 -385.171)"/>
        <path id="Path_189" data-name="Path 189" class="cls-12" d="M260.985,569.528c.154-.461-.154-2.3-.921-1.228-1.919,2.609-3.607,5.987-6.908,7.368a35.121,35.121,0,0,1-5.756,1.458,11.144,11.144,0,0,0,4.221,2c2.072-.077,3.914-2.226,5.219-3.454a17.917,17.917,0,0,0,2.84-3.53A16.281,16.281,0,0,0,260.985,569.528Z" transform="translate(-154.728 -410.343)"/>
      </g>
    </g>
    <g id="Group_271" data-name="Group 271" transform="translate(1268.721 529.845)">
      <path id="Path_190" data-name="Path 190" class="cls-2" d="M270.137,600.856c-.154.077-.23.154-.384.154a31.577,31.577,0,0,1-14.122,2.149,2.24,2.24,0,0,1-.691-.154,3.549,3.549,0,0,1-.537-.537c-1.382-2-2.84-4.068-3.224-6.447a1.927,1.927,0,0,1,.537-2,2.276,2.276,0,0,1,1.458-.23c.768.077,2.763.614,3.377.154.691-.537.154-1.458-.077-2.072.921-.614,1.919-1.151,2.84-1.765.537-.307,2-1.688,2.686-1.612l10.054.23,3.224,6.831C273.821,597.172,272.132,599.858,270.137,600.856Z" transform="translate(-251.111 -494.668)"/>
      <path id="Path_191" data-name="Path 191" class="cls-23" d="M329.761,520.089c1.382,6.447,2.533,12.971,3.607,19.495a15.538,15.538,0,0,1,.307,4.605c-.768,4.452-5.526,6.908-9.671,8.673-6.6,2.84-13.2,5.6-19.878,8.443-6.6,2.84-13.815,7.215-20.8,8.826-4.068.921-4.145-.691-6.984-4.221-1.382-1.688-3.224-5.219-5.142-6.37,2.533,1.075,9.824-5.526,11.743-6.984,5.987-4.682,12.28-9.133,17.883-14.276,1.382-1.228,2.763-2.61,3.07-4.452a8.737,8.737,0,0,0-.614-3.914c-4.989-15.043-9.9-30.009-14.89-45.053-1.228-3.838-2.533-7.905-1.228-11.743,2.149-6.217,10.515-8.366,16.578-5.833,6.063,2.609,10.054,8.366,13.124,14.2C323.237,493.687,327,506.735,329.761,520.089Z" transform="translate(-255.782 -466.245)"/>
    </g>
    <g id="Group_273" data-name="Group 273" transform="translate(1220.951 593.513)">
      <g id="Group_272" data-name="Group 272" transform="translate(7.578 0.997)">
        <path id="Path_192" data-name="Path 192" class="cls-2" d="M208.074,562.089c2.226,1.151,5.066,2.3,7.368,1.3a24.139,24.139,0,0,0,5.219-3.838,1.169,1.169,0,0,0,.461-.768,1.334,1.334,0,0,0-.461-.844c-1.689-1.842-5.066-5.91-8.212-6.37-2.84-.384-5.142,2.763-7.445,2.149-2.226-.537-.307-3.761-4.068-3.147-2.379.384-2.456,3.07-1.919,4.451C200.015,558.021,204.774,560.324,208.074,562.089Z" transform="translate(-198.745 -550.499)"/>
      </g>
      <path id="Path_193" data-name="Path 193" class="cls-23" d="M200.636,556.721a28.517,28.517,0,0,0,10.745,6.217,6.981,6.981,0,0,1,2.3,1c.691.461,1.075,1.151.768,1.765-.384.844-1.765,1.075-2.84,1.228l-5.066.691a17.608,17.608,0,0,1-4.912.23,14.485,14.485,0,0,1-5.219-1.765c-4.912-2.84-7.829-7.522-7.522-12.2a5.351,5.351,0,0,1,1.458-3.531C194.8,546.13,198.564,554.726,200.636,556.721Z" transform="translate(-188.871 -549.2)"/>
    </g>
    <g id="Group_278" data-name="Group 278" transform="translate(1586.423 640.52)">
      <g id="Group_277" data-name="Group 277">
        <path id="Path_194" data-name="Path 194" class="cls-25" d="M727.586,695.8l-4.375.23c-1.612.077-3.377.077-4.528-.844a3.31,3.31,0,0,1-.077-4.759,9.94,9.94,0,0,1,4.912-2.686A56.093,56.093,0,0,1,737.41,685.9a4.249,4.249,0,0,1,1.381.154,2.646,2.646,0,0,1,1.458,1.688C742.859,694.957,733.266,695.494,727.586,695.8Z" transform="translate(-677.28 -627.989)"/>
        <path id="Path_195" data-name="Path 195" class="cls-4" d="M694.668,650.734c1.151-8.9,6.063-15.964,15.273-19.8,7.445-3.147,15.734-3.838,23.869-4.835,18.113-2.072,35.382-4.145,53.649-3.531,14.583.537,23.639,11.743,30.47,22.795,4.3,6.984,3.147,10.208-2.3,16.041-4.989,5.373-6.677,11.82-13.431,15.273-13.431,6.831-38.529,3.377-53.265,1.842a123.287,123.287,0,0,1-40.064-10.975C700.808,663.782,693.593,659.33,694.668,650.734Z" transform="translate(-671.914 -613.239)"/>
        <g id="Group_276" data-name="Group 276">
          <path id="Path_196" data-name="Path 196" class="cls-4" d="M802.619,711.924a2.763,2.763,0,0,1-.154,1.765,2.873,2.873,0,0,1-1,.921c-2.993,1.765-7.061-.154-9.44-2.609a72.924,72.924,0,0,0-11.282-9.21c-6.754-4.221,3.838-10.054,10.9-8.289C800.009,696.574,801.7,705.477,802.619,711.924Z" transform="translate(-691.449 -629.913)"/>
          <g id="Group_275" data-name="Group 275">
            <path id="Path_197" data-name="Path 197" class="cls-4" d="M680.593,648.709c-6.217-4.145-12.51-8.826-14.813-15.734s.921-16.732,8.98-20.723c9.824-4.912,19.418,1.151,26.479,6.754,14.352,11.589,29.933,21.8,45.206,32.389,5.142,3.607,27.477,18.574,27.477,18.574.46,1.842-13.585,16.808-16.118,16.194C730.02,679.64,702.851,663.522,680.593,648.709Z" transform="translate(-665.054 -610.446)"/>
            <path id="Path_198" data-name="Path 198" class="cls-4" d="M842,658.934c6.14-2.686,12.28-5.91,14.659-12.28,2.379-6.447-.307-16.962-7.905-22.872-9.21-7.138-18.65-3.377-25.558.614-14.122,8.289-29.4,14.89-44.362,21.951-5.065,2.379-22.641,11.436-22.641,11.436-.537,1.765,8.135,20.8,10.592,20.8C816.9,678.2,808.69,673.44,842,658.934Z" transform="translate(-686.238 -612.612)"/>
          </g>
        </g>
      </g>
    </g>
    <g id="Group_282" data-name="Group 282" transform="translate(1696.727 516.533)">
      <g id="Group_279" data-name="Group 279" transform="translate(23.354)">
        <path id="Path_199" data-name="Path 199" class="cls-2" d="M845.187,465.939l7.6-.691.307-12.587-6.984-3.761-5.91,3.454,3.3,5.066-1.458.077-1.535-1.3-1.3,1.612Z" transform="translate(-839.2 -448.9)"/>
      </g>
      <g id="Group_281" data-name="Group 281" transform="translate(0 13.662)">
        <g id="Group_280" data-name="Group 280">
          <path id="Path_200" data-name="Path 200" class="cls-6" d="M828.288,544.985a109.788,109.788,0,0,1-19.495-54.953c-.154-2.456.461-5.833,2.917-5.987a3.975,3.975,0,0,1,2.686,1.075c6.524,4.759,9.594,12.894,14.736,19.111,1,1.228,2.763,2.456,4.068,1.458a3.271,3.271,0,0,0,.921-2.149c.691-5.449-.307-11.359.077-16.962.23-4.145-.768-16.578,2.379-18.574.691-.461,10.131-1.151,10.131-1.3,1.842,10.054,3.684,20.109,5.526,30.086,1.382,7.522,2.763,14.966,4.145,22.488,2.072,11.282.921,29.088-5.987,38.605-1.228,1.689-2.917,3.377-5.065,3.531-2.456.23-4.605-1.689-6.37-3.454A108.953,108.953,0,0,1,828.288,544.985Z" transform="translate(-808.771 -466.7)"/>
        </g>
      </g>
    </g>
    <g id="Group_285" data-name="Group 285" transform="translate(1627.732 466.329)">
      <path id="Path_201" data-name="Path 201" class="cls-6" d="M792.345,476.317,753.279,473.4s-12.894,14.89-27.016,57.64a151.93,151.93,0,0,0-7.061,57.179c.384,5.526.307,12.587,2.226,17.883,2.993,8.366,10.361,8.519,19.034,8.443,12.05-.154,25.865,1.535,37.915,1.381,3.914-.077,6.063-1.919,9.824-3.224,7.905-2.61,13.278-10.131,20.8-13.662,3.914-1.842,8.366-2.533,12.2-4.452,3.914-1.919,7.445-5.6,7.215-9.978-.154-2.917-2-5.372-3.454-7.905-10.592-18.267-3.147-40.524-9.747-59.865C810.074,502.181,800.71,489.364,792.345,476.317Z" transform="translate(-718.876 -404.393)"/>
      <g id="Group_284" data-name="Group 284" transform="translate(7.49)">
        <g id="Group_283" data-name="Group 283" transform="translate(22.678 26.488)">
          <path id="Path_202" data-name="Path 202" class="cls-2" d="M760.805,418c10.054,3.838,21.8-1.842,31.314,3.224,6.217,3.3,9.9,10.745,10.285,18.036a17.394,17.394,0,0,1-2.072,9.671,15.132,15.132,0,0,1-4.3,4.528,22.706,22.706,0,0,1-7.445,3.454c-.23.077,2.609,6.6,2.84,7.138-1.689.844-1.3,4.145-2.993,5.6-1.689,1.535-4.452,1.612-6.6.844a17.844,17.844,0,0,1-5.6-3.991c-1.535-1.458.307-9.747-1.381-10.285a28.026,28.026,0,0,1-4.068-1.919c-7.829-4.682-12.894-14.276-12.587-23.562C758.35,426.366,759.578,422.145,760.805,418Z" transform="translate(-758.183 -418)"/>
        </g>
        <path id="Path_203" data-name="Path 203" class="cls-4" d="M778.726,412.739a5.927,5.927,0,0,0-1.151-.154,39.256,39.256,0,0,0-16.885,1.689,14.574,14.574,0,0,0-5.526,2.84,12.391,12.391,0,0,0-3.684,8.366,32.163,32.163,0,0,0,1,9.364,6.245,6.245,0,0,1-3.454-1.765c-2.993-2.533-6.14-5.833-7.752-9.44-1.612-3.684-1.3-8.443-3.684-11.743-1.075-1.535-2.84-2.456-4.3-3.607a12.787,12.787,0,0,1-4.605-10.822,9.366,9.366,0,0,1,3.3-6.677c3.3-2.533,8.135-1.919,11.973-3.607,1.919-.844,3.607-2.3,5.6-3.07,4.221-1.612,9.057.154,13.048,2.456s7.828,5.219,12.28,6.217c3.607.768,7.291.23,10.9.768A21.231,21.231,0,0,1,800.6,403.606c3.607,5.91,4.912,14.045,1.381,20.032A69.266,69.266,0,0,0,797.607,433c-.461,1.151-3.531,5.526-4.068,1.688-.461-2.993.077-6.063-.384-9.057C792,418.189,785.48,413.891,778.726,412.739Z" transform="translate(-728.635 -383.488)"/>
      </g>
    </g>
    <g id="Group_288" data-name="Group 288" transform="translate(1684 507.964)">
      <g id="Group_286" data-name="Group 286" transform="translate(0 0.054)">
        <rect id="Rectangle_51" data-name="Rectangle 51" class="cls-11" width="13.508" height="80.895" transform="translate(7.785 57.66) rotate(-125.189)"/>
      </g>
      <g id="Group_287" data-name="Group 287" transform="translate(0.004)">
        <rect id="Rectangle_52" data-name="Rectangle 52" class="cls-26" width="5.219" height="80.895" transform="translate(3.008 50.885) rotate(-125.189)"/>
      </g>
    </g>
    <g id="Group_322" data-name="Group 322" transform="translate(1574.614 526.902)">
      <g id="Group_321" data-name="Group 321">
        <g id="Group_291" data-name="Group 291" transform="translate(67.841 42.977)">
          <g id="Group_289" data-name="Group 289" transform="translate(0 0.024)">
            <rect id="Rectangle_53" data-name="Rectangle 53" class="cls-11" width="15.734" height="101.848" transform="translate(0 0.434) rotate(-1.579)"/>
          </g>
          <g id="Group_290" data-name="Group 290" transform="translate(9.746)">
            <rect id="Rectangle_54" data-name="Rectangle 54" class="cls-26" width="6.063" height="101.848" transform="matrix(1, -0.028, 0.028, 1, 0, 0.167)"/>
          </g>
        </g>
        <g id="Group_294" data-name="Group 294" transform="translate(0 16.312)">
          <g id="Group_292" data-name="Group 292" transform="translate(0 0.01)">
            <rect id="Rectangle_55" data-name="Rectangle 55" class="cls-11" width="17.346" height="112.132" transform="matrix(0.9, -0.435, 0.435, 0.9, 0, 7.544)"/>
          </g>
          <g id="Group_293" data-name="Group 293" transform="translate(9.681)">
            <rect id="Rectangle_56" data-name="Rectangle 56" class="cls-26" width="6.677" height="112.132" transform="matrix(0.9, -0.435, 0.435, 0.9, 0, 2.904)"/>
          </g>
        </g>
        <g id="Group_297" data-name="Group 297" transform="translate(74.535 29.276)">
          <g id="Group_295" data-name="Group 295">
            <rect id="Rectangle_57" data-name="Rectangle 57" class="cls-11" width="17.346" height="112.132" transform="matrix(0.993, 0.118, -0.118, 0.993, 13.254, 0)"/>
          </g>
          <g id="Group_296" data-name="Group 296" transform="translate(10.635 1.246)">
            <rect id="Rectangle_58" data-name="Rectangle 58" class="cls-26" width="6.677" height="112.132" transform="matrix(0.993, 0.118, -0.118, 0.993, 13.254, 0)"/>
          </g>
        </g>
        <g id="Group_300" data-name="Group 300" transform="translate(52.233)">
          <g id="Group_298" data-name="Group 298" transform="translate(0 0.022)">
            <rect id="Rectangle_59" data-name="Rectangle 59" class="cls-11" width="17.346" height="112.132" transform="translate(0 0.669) rotate(-2.21)"/>
          </g>
          <g id="Group_299" data-name="Group 299" transform="translate(10.662)">
            <rect id="Rectangle_60" data-name="Rectangle 60" class="cls-26" width="6.677" height="112.132" transform="matrix(0.999, -0.039, 0.039, 0.999, 0, 0.257)"/>
          </g>
        </g>
        <g id="Group_303" data-name="Group 303" transform="translate(7.603 49.246)">
          <g id="Group_301" data-name="Group 301">
            <rect id="Rectangle_61" data-name="Rectangle 61" class="cls-11" width="15.734" height="101.848" transform="matrix(0.986, -0.167, 0.167, 0.986, 0, 2.62)"/>
          </g>
          <g id="Group_302" data-name="Group 302" transform="translate(9.532 0.044)">
            <rect id="Rectangle_62" data-name="Rectangle 62" class="cls-26" width="6.063" height="101.848" transform="matrix(0.986, -0.167, 0.167, 0.986, 0, 1.01)"/>
          </g>
        </g>
        <g id="Group_306" data-name="Group 306" transform="translate(41.612 57.959)">
          <g id="Group_304" data-name="Group 304">
            <rect id="Rectangle_63" data-name="Rectangle 63" class="cls-11" width="15.734" height="101.848" transform="matrix(0.999, -0.043, 0.043, 0.999, 0, 0.672)"/>
          </g>
          <g id="Group_305" data-name="Group 305" transform="translate(9.667 0.056)">
            <rect id="Rectangle_64" data-name="Rectangle 64" class="cls-26" width="6.063" height="101.848" transform="matrix(0.999, -0.043, 0.043, 0.999, 0, 0.259)"/>
          </g>
        </g>
        <g id="Group_309" data-name="Group 309" transform="translate(82.191 55.949)">
          <g id="Group_307" data-name="Group 307" transform="translate(0 0.022)">
            <rect id="Rectangle_65" data-name="Rectangle 65" class="cls-11" width="15.734" height="101.848" transform="translate(0 0.434) rotate(-1.579)"/>
          </g>
          <g id="Group_308" data-name="Group 308" transform="translate(9.669)">
            <rect id="Rectangle_66" data-name="Rectangle 66" class="cls-26" width="6.063" height="101.848" transform="matrix(1, -0.028, 0.028, 1, 0, 0.167)"/>
          </g>
        </g>
        <g id="Group_312" data-name="Group 312" transform="translate(28.391 35.177)">
          <g id="Group_310" data-name="Group 310">
            <rect id="Rectangle_67" data-name="Rectangle 67" class="cls-11" width="15.734" height="101.848" transform="translate(3.037 0) rotate(1.709)"/>
          </g>
          <g id="Group_311" data-name="Group 311" transform="translate(9.742 0.303)">
            <rect id="Rectangle_68" data-name="Rectangle 68" class="cls-26" width="6.063" height="101.848" transform="translate(3.038 0) rotate(1.709)"/>
          </g>
        </g>
        <g id="Group_315" data-name="Group 315" transform="translate(54.192 59.463)">
          <g id="Group_313" data-name="Group 313">
            <rect id="Rectangle_69" data-name="Rectangle 69" class="cls-11" width="15.734" height="101.848" transform="matrix(0.986, -0.167, 0.167, 0.986, 0, 2.62)"/>
          </g>
          <g id="Group_314" data-name="Group 314" transform="translate(9.61 0.027)">
            <rect id="Rectangle_70" data-name="Rectangle 70" class="cls-26" width="6.063" height="101.848" transform="matrix(0.986, -0.167, 0.167, 0.986, 0, 1.01)"/>
          </g>
        </g>
        <g id="Group_318" data-name="Group 318" transform="translate(92.501 50.47)">
          <g id="Group_316" data-name="Group 316">
            <rect id="Rectangle_71" data-name="Rectangle 71" class="cls-11" width="15.964" height="103.229" transform="translate(12.728 0) rotate(7.082)"/>
          </g>
          <g id="Group_317" data-name="Group 317" transform="translate(9.789 1.22)">
            <rect id="Rectangle_72" data-name="Rectangle 72" class="cls-26" width="6.14" height="103.229" transform="translate(12.728) rotate(7.082)"/>
          </g>
        </g>
        <g id="Group_319" data-name="Group 319" transform="translate(10.156 87.257)">
          <path id="Path_204" data-name="Path 204" class="cls-15" d="M772.423,576.1h0l-12.357,2.226s-9.594,13.892-41.982,14.89c-32.465.768-42.75-12.587-42.75-12.587L662.9,579.093l14.89,90.028,6.524,7.368s13.815-3.684,35.919-4.835c22.1-.077,36.073,2.84,36.073,2.84l6.14-7.752,9.978-90.642Z" transform="translate(-662.9 -576.1)"/>
        </g>
        <g id="Group_320" data-name="Group 320" class="cls-27" transform="translate(68.64 87.257)">
          <path id="Path_205" data-name="Path 205" d="M774.1,674.571l6.14-7.752,9.9-90.719c-6.294,38.912-32.542,84.042-51.039,95.554C760.513,671.731,774.1,674.571,774.1,674.571Z" transform="translate(-739.1 -576.1)"/>
        </g>
      </g>
      <path id="Path_206" data-name="Path 206" class="cls-6" d="M769.352,636.766l-33.31-.614c-2.533-6.524-8.059-11.052-14.506-11.052-6.37,0-11.9,4.528-14.506,11.052l-34.231.614,2.84,15.811h31.468c2.533,6.524,8.059,11.052,14.506,11.052,6.37,0,11.9-4.528,14.506-11.052h31.468Z" transform="translate(-655.046 -500.235)"/>
    </g>
  </g>
</svg>
