<svg xmlns="http://www.w3.org/2000/svg" viewBox="0 0 854.447 580.963">
  <defs>
    <style>
      .cls-1 {
        opacity: 0.4;
      }

      .cls-2 {
        fill: #eceaea;
      }

      .cls-3 {
        fill: #ddaa90;
      }

      .cls-4 {
        fill: #19192b;
      }

      .cls-5 {
        fill: #353a85;
      }

      .cls-6 {
        fill: #5d66d3;
      }

      .cls-7 {
        fill: #24243f;
      }

      .cls-8 {
        fill: #292949;
      }

      .cls-9 {
        fill: #babcbe;
      }

      .cls-10 {
        fill: #ececec;
      }

      .cls-11 {
        fill: #3b3387;
      }

      .cls-12 {
        fill: #fdfbf1;
      }

      .cls-13 {
        opacity: 0.12;
      }

      .cls-14 {
        opacity: 0.47;
      }

      .cls-15 {
        fill: #879195;
      }

      .cls-16 {
        fill: #474ebb;
      }

      .cls-17 {
        opacity: 0.32;
      }

      .cls-18 {
        fill: #8cabef;
      }

      .cls-19 {
        fill: #fff;
      }

      .cls-20 {
        fill: #ff595b;
      }

      .cls-21 {
        fill: #343335;
      }

      .cls-22 {
        fill: #080b0b;
      }

      .cls-23 {
        fill: #a2a4a7;
      }

      .cls-24 {
        fill: #a37567;
      }

      .cls-25 {
        fill: #40495f;
      }

      .cls-26 {
        fill: #59595b;
      }

      .cls-27 {
        fill: #dddae8;
      }
    </style>
  </defs>
  <g id="Group_324" data-name="Group 324" transform="translate(-45 -1649.336)">
    <g id="Group_210" data-name="Group 210" class="cls-1" transform="translate(44.997 2165)">
      <path id="Path_94" data-name="Path 94" class="cls-2" d="M392,0c-25,.1-50,.5-75,2.4-9.4.7-18.6,2.3-28.1,3-18.9,1.3-37.4,3.7-56.3,4.8-15.2.9-30.5,1.4-45.7,2.6a233.245,233.245,0,0,1-44.2-.9c-10.5-1.3-21-2-31.3-4.1a187.237,187.237,0,0,0-36-4c-17,0-33.7,0-50.1,4.2-5.7,1.4-12.8,3.8-17.1,6.9-10,7-11.3,24.3-1.4,31.6C23.6,58.6,59.5,63.3,83,63.6c25.8.2,50.9-1.1,76.7-1.9,24-.7,48-1.8,72-1.7,49.1.1,98.2,0,147.3-2.3,46.1-2.1,92.2-1.4,138.4-1.4,47.3,0,94.3.3,141.3,4.6,20.5,1.9,41.3,2.6,61.9,3.9,18.4,1.2,36.1,0,54.5-1.1a177.671,177.671,0,0,0,44.7-8.3c11.1-3.7,30.8-15.1,34.2-23.9,9.5-24.7-134.3-24.1-156.4-24-24.7.1-49.6.6-74.3,0a259.549,259.549,0,0,1-30.7-3.2c-10.1-1.5-20.3-1.1-30.5-1.8C519.4-.2,476.6.2,433.8.2,419.9.1,406,0,392,0Z"/>
    </g>
    <g id="Group_37" data-name="Group 37" transform="translate(661.17 2106.269)">
      <path id="Path_19" data-name="Path 19" class="cls-3" d="M637.2,644.029h-9.376L627.5,565.3l17.378,3.8Z" transform="translate(-627.5 -565.3)"/>
    </g>
    <g id="Group_49" data-name="Group 49" transform="translate(516.524 1875.233)">
      <g id="Group_38" data-name="Group 38" transform="translate(66.08 304.834)">
        <path id="Path_20" data-name="Path 20" class="cls-4" d="M546.87,662.42l.727,5.739-10.75,7.275-6.547-5.011,5.011-6.547,10.831-7.275Z" transform="translate(-530.3 -656.6)"/>
      </g>
      <g id="Group_40" data-name="Group 40" transform="translate(36.092 133.555)">
        <g id="Group_39" data-name="Group 39">
          <path id="Path_21" data-name="Path 21" class="cls-5" d="M540.081,619.859,531.756,546.3l10.023-82.366-2.263-17.54-44.7-1.7L493.2,473.233l7.517,73.151,28.291,77.193Z" transform="translate(-493.2 -444.7)"/>
        </g>
      </g>
      <g id="Group_43" data-name="Group 43" transform="translate(4.083 156.753)">
        <g id="Group_41" data-name="Group 41">
          <path id="Path_22" data-name="Path 22" class="cls-5" d="M455.3,475.582l-1.7,57.309,12.205,95.945,10.75.162,8.406-88.1L497.572,473.4Z" transform="translate(-453.6 -473.4)"/>
        </g>
        <g id="Group_42" data-name="Group 42" transform="translate(5.335 154.143)">
          <path id="Path_23" data-name="Path 23" class="cls-4" d="M477.659,670.081l-11.72,5.658-5.739-5.981,5.9-5.658,11.64.162Z" transform="translate(-460.2 -664.1)"/>
        </g>
      </g>
      <g id="Group_45" data-name="Group 45" transform="translate(2.179 51.702)">
        <g id="Group_44" data-name="Group 44">
          <path id="Path_24" data-name="Path 24" class="cls-6" d="M536.484,458.832c-.485-5.011.485-14.549.162-17.055-2.021-16.813-1.293-33.14-4.2-50.034-1.051-6.3-4.85-21.986-7.6-27.886-6.79-14.549-4.688-15.843-34.514-20.208-8.326-1.212-14.954,2.829-20.127,9.053-6.628,8.083-5.416,21.1-8.891,30.635-4.042,10.912-2.506,22.794-4.2,34.272-2.021,13.822-4.526,28.21-5.82,41.789-.081.4-.081.97.242,1.212a1.466,1.466,0,0,0,1.051.242c10.265-.242,20.45-1.374,30.715-1.293,8,.081,15.762,1.859,23.683,2.425,9.7.647,21.339-6.143,30.392-.242C536.888,461.5,536.646,460.368,536.484,458.832Z" transform="translate(-451.244 -343.434)"/>
        </g>
      </g>
      <g id="Group_48" data-name="Group 48">
        <g id="Group_46" data-name="Group 46" transform="translate(27.771 20.446)">
          <path id="Path_25" data-name="Path 25" class="cls-3" d="M496.4,340.44c1.536.727,5.092.97,8.73-.4a2.018,2.018,0,0,0,1.212-1.778,45.984,45.984,0,0,0-.566-6.709c2.748-.97,5.981-2.425,6.466-5.335a7.886,7.886,0,0,0-.162-2.748c-.647-3.8-1.293-7.6-1.94-11.316a10.465,10.465,0,0,0-1.212-3.8c-1.212-1.94-3.637-2.829-5.981-3.233a20.624,20.624,0,0,0-16.813,4.122,9.723,9.723,0,0,0-2.829,3.718c-.808,2.263-.242,4.85.4,7.194l1.7,6.547c.647,2.506,1.617,5.335,4.042,6.3,1.293.485,2.829.323,3.961,1.051C495.591,335.186,495.349,338.257,496.4,340.44Z" transform="translate(-482.906 -304.766)"/>
        </g>
        <g id="Group_47" data-name="Group 47">
          <path id="Path_26" data-name="Path 26" class="cls-7" d="M456.027,297.843a32.718,32.718,0,0,0-1.859-2.748c-1.536-1.859-3.314-3.476-4.526-5.5s-1.617-4.85-.162-6.709a7.242,7.242,0,0,1,3.961-2.263,27.929,27.929,0,0,1,15.034-.242c4.688,1.212,8.891,3.152,13.579,1.374,4.446-1.617,7.6-.97,12.205.647,5.011,1.778,11.72,2.182,16.247,4.688a13.694,13.694,0,0,1,4.607,4.526,20.152,20.152,0,0,1,.081,21.258,25.128,25.128,0,0,1-3.152,3.961c-2.344,2.587-5.173,5.739-8.406,6.709-.081-2.91,2.587-12.044.323-14.469-3.557-3.8-11.559-2.425-15.924-1.536-4.769,1.051-9.053,4.446-13.822,5.173-3.395.485-7.76-1.132-10.67-2.91C459.826,307.7,458.128,301.318,456.027,297.843Z" transform="translate(-448.549 -279.471)"/>
        </g>
      </g>
    </g>
    <g id="Group_68" data-name="Group 68" transform="translate(607.823 1865.072)">
      <g id="Group_50" data-name="Group 50" transform="translate(0 6.466)">
        <path id="Path_27" data-name="Path 27" class="cls-3" d="M566.188,292.521,561.5,280.316l4.365-5.416,4.607,3.88,1.859,5.011,3.395.081-.162,9.134L594.8,332.128l33.383-.323-7.436,26.431-32.817-11.4-10.023-9.619Z" transform="translate(-561.5 -274.9)"/>
      </g>
      <g id="Group_55" data-name="Group 55" transform="translate(86.973)">
        <g id="Group_52" data-name="Group 52" transform="translate(36.616)">
          <g id="Group_51" data-name="Group 51">
            <path id="Path_28" data-name="Path 28" class="cls-3" d="M714.642,283.47l-.242-9.134,7.194-7.436,5.9,1.455L722.4,290.017Z" transform="translate(-714.4 -266.9)"/>
          </g>
        </g>
        <g id="Group_54" data-name="Group 54" transform="translate(0 16.57)">
          <g id="Group_53" data-name="Group 53">
            <path id="Path_29" data-name="Path 29" class="cls-3" d="M669.1,330.806l26.674,9.78L705.958,287.4l7.194,1.536,2.182,60.7-8.406,13.014-26.593-7.6Z" transform="translate(-669.1 -287.4)"/>
          </g>
        </g>
      </g>
      <g id="Group_58" data-name="Group 58" transform="translate(74.04 177.341)">
        <g id="Group_56" data-name="Group 56">
          <path id="Path_30" data-name="Path 30" class="cls-8" d="M653.1,500.364,695.132,486.3l-10.669,72.585-22.067,7.6-8-59.9h0Z" transform="translate(-653.1 -486.3)"/>
        </g>
        <g id="Group_57" data-name="Group 57" transform="translate(15.358 139.594)">
          <path id="Path_31" data-name="Path 31" class="cls-4" d="M683.416,659l8.487.081,1.94,7.194-.162.081h0l-14.307,7.921-6.709.566-.566-7.679,1.778-1.293Z" transform="translate(-672.1 -659)"/>
        </g>
      </g>
      <g id="Group_61" data-name="Group 61" transform="translate(42.597 183.808)">
        <g id="Group_59" data-name="Group 59" transform="translate(2.263)">
          <path id="Path_32" data-name="Path 32" class="cls-8" d="M617,502.383l8,55.288,19.318,3.314L660.567,494.3Z" transform="translate(-617 -494.3)"/>
        </g>
        <g id="Group_60" data-name="Group 60" transform="translate(0 136.118)">
          <path id="Path_33" data-name="Path 33" class="cls-4" d="M625.274,662.7,614.2,668.52l.889,5.173,19.561-.162V662.7Z" transform="translate(-614.2 -662.7)"/>
        </g>
      </g>
      <g id="Group_63" data-name="Group 63" transform="translate(42.597 58.036)">
        <g id="Group_62" data-name="Group 62">
          <path id="Path_34" data-name="Path 34" class="cls-9" d="M614.2,475.384c2.021.566,4.446-.242,6.628-.242,9.78-.162,19.318.081,29.1-.889,10.508-1.051,20.935-2.263,31.443-2.344a101.407,101.407,0,0,1,13.094-.566c-4.688-24.734-10.1-48.094-10.1-48.094a160.354,160.354,0,0,1-4.122-21.339c-.566-5.092-13.256-63.128-12.448-63.209-8.73.808-25.623-1.7-32.09,5.739a4.047,4.047,0,0,1-.566.647c-5.011,6.951-7.679,21.016-10.023,29.665-3.476,12.609-3.072,25.785-3.557,38.8-.647,18.348-6.386,35.646-6.871,53.995C614.766,470.13,614.362,472.8,614.2,475.384Z" transform="translate(-614.2 -338.7)"/>
        </g>
      </g>
      <g id="Group_67" data-name="Group 67" transform="translate(52.466 14.671)">
        <g id="Group_64" data-name="Group 64" transform="translate(0 4)">
          <path id="Path_35" data-name="Path 35" class="cls-7" d="M654.207,300.427c-4.769.566-10.912,4.2-12.367,9.134-.727,2.344-.081,4.607-.889,7.113-1.7,4.931,3.961,12.771-2.344,15.843-3.233,1.617-7.032.727-10.508-.081a3.188,3.188,0,0,1-1.212-.485,1.823,1.823,0,0,1-.323-2.021,6.323,6.323,0,0,1,1.212-1.778c4.526-5.981,4.122-14.954,6.224-21.9s6.3-13.741,13.579-16.247c3.314,2.506,5.577,5.092,6.224,9.215Z" transform="translate(-626.41 -290)"/>
        </g>
        <g id="Group_65" data-name="Group 65" transform="translate(13.46 7.891)">
          <path id="Path_36" data-name="Path 36" class="cls-3" d="M651.095,330.691c-4.446-2.263-7.113-7.113-7.841-11.963-.647-4.931.4-9.942,2.1-14.63,5.5-15.6,25.138-9.7,28.856,4.122C677.526,320.345,663.947,337.238,651.095,330.691Z" transform="translate(-643.062 -294.814)"/>
        </g>
        <g id="Group_66" data-name="Group 66" transform="translate(20.187)">
          <path id="Path_37" data-name="Path 37" class="cls-7" d="M673.706,339.813c-2.182-1.536-4.2-3.152-5.335-5.82-1.859-4.365-.485-10.831-.485-15.358.081-4.85-.081-10.1-3.072-13.822-2.021-2.425-4.607-3.233-7.6-3.718-2.021-.323-2.263.4-3.8-.97-1.212-1.051-1.94-3.718-2.021-5.254a8.3,8.3,0,0,1,3.152-6.628,11.968,11.968,0,0,1,9.942-3.072c13.337,1.7,22.067,11.074,23.845,24.572.889,6.466-1.536,13.256-.485,19.48.647,3.88,2.587,6.709,2.991,10.75.97,10.589,4.607,24.491,2.587,35a1.6,1.6,0,0,1-.485,1.051c-.647.4-1.455-.323-1.94-1.051-2.506-3.961-5.011-8-7.517-11.963a21.774,21.774,0,0,1-2.506-4.931c-1.293-4.446.485-9.619-1.94-13.5A23.244,23.244,0,0,0,673.706,339.813Z" transform="translate(-651.384 -285.051)"/>
        </g>
      </g>
    </g>
    <g id="Group_95" data-name="Group 95" transform="translate(178.534 1838.56)">
      <g id="Group_73" data-name="Group 73" transform="translate(41.062)">
        <g id="Group_70" data-name="Group 70" transform="translate(26.674)">
          <g id="Group_69" data-name="Group 69">
            <path id="Path_38" data-name="Path 38" class="cls-3" d="M114.523,250.67l-.323-9.134,7.194-7.436L126,236.767l-4.042,17.54Z" transform="translate(-114.2 -234.1)"/>
          </g>
        </g>
        <g id="Group_72" data-name="Group 72" transform="translate(0 16.57)">
          <g id="Group_71" data-name="Group 71">
            <path id="Path_39" data-name="Path 39" class="cls-3" d="M81.2,339.472l16.732-31.685L108.2,254.6l7.113,1.536.323,56.9-6.466,16.813L92.435,363.64Z" transform="translate(-81.2 -254.6)"/>
          </g>
        </g>
      </g>
      <g id="Group_92" data-name="Group 92" transform="translate(0 86.525)">
        <g id="Group_80" data-name="Group 80" transform="translate(4.85 120.4)">
          <g id="Group_76" data-name="Group 76" transform="translate(0 134.42)">
            <g id="Group_75" data-name="Group 75">
              <g id="Group_74" data-name="Group 74">
                <path id="Path_40" data-name="Path 40" class="cls-4" d="M36.966,660.927l-.566,4.526,8.083,5.82,4.931-3.88-3.8-5.092-8.083-5.9Z" transform="translate(-36.4 -656.4)"/>
              </g>
            </g>
          </g>
          <g id="Group_79" data-name="Group 79" transform="translate(0.323)">
            <g id="Group_78" data-name="Group 78">
              <g id="Group_77" data-name="Group 77">
                <path id="Path_41" data-name="Path 41" class="cls-5" d="M40.518,490.827l-1.7,13.66,11.155,47.528L36.8,627.511l8.325,3.152,23.926-73.555,4.041-21.42.97-45.588Z" transform="translate(-36.8 -490.1)"/>
              </g>
            </g>
          </g>
        </g>
        <g id="Group_87" data-name="Group 87" transform="translate(31.685 125.411)">
          <g id="Group_83" data-name="Group 83">
            <g id="Group_82" data-name="Group 82">
              <g id="Group_81" data-name="Group 81">
                <path id="Path_42" data-name="Path 42" class="cls-5" d="M111.147,508.829,90.454,635.489l-8.083-.242.485-81.477L69.6,496.3Z" transform="translate(-69.6 -496.3)"/>
              </g>
            </g>
          </g>
          <g id="Group_86" data-name="Group 86" transform="translate(12.771 137.977)">
            <g id="Group_85" data-name="Group 85">
              <g id="Group_84" data-name="Group 84">
                <path id="Path_43" data-name="Path 43" class="cls-4" d="M85.481,667l-.081,4.526,8.568,4.769,4.446-4.446-4.2-4.688Z" transform="translate(-85.4 -667)"/>
              </g>
            </g>
          </g>
        </g>
        <g id="Group_91" data-name="Group 91">
          <g id="Group_90" data-name="Group 90">
            <g id="Group_89" data-name="Group 89">
              <g id="Group_88" data-name="Group 88">
                <path id="Path_44" data-name="Path 44" class="cls-6" d="M42.605,426.061c.647-2.506,1.051-4.365,1.212-5.011,2.829-11.72,1.94-25.381,2.587-37.505.566-9.457.081-19,.727-28.452a14.807,14.807,0,0,1,6.3-10.993c2.506-.4,4.769-1.859,7.356-2.344,17.3-3.476,26.431,8.487,32.575,21.339,4.931,10.265,8.81,19.4,9.215,30.715.566,18.348-1.374,36.778,2.344,54.722a123.377,123.377,0,0,1,2.344,31.766c-7.113-2.182-13.741-5.092-20.692-7.6-8.164-2.91-18.025-2.263-26.593-2.425-9.942-.162-19.642.647-29.584-.97C31.693,469.629,39.534,438.671,42.605,426.061Z" transform="translate(-30.4 -341.146)"/>
              </g>
            </g>
          </g>
        </g>
      </g>
      <g id="Group_94" data-name="Group 94" transform="translate(24.492 85.842)">
        <g id="Group_93" data-name="Group 93">
          <path id="Path_45" data-name="Path 45" class="cls-10" d="M82.2,342.24l2.1,48.175L60.7,344.1l7.275-2.425,5.173-1.374Z" transform="translate(-60.7 -340.3)"/>
        </g>
      </g>
    </g>
    <g id="Group_115" data-name="Group 115" transform="translate(224.08 1923.946)">
      <g id="Group_114" data-name="Group 114">
        <g id="Group_113" data-name="Group 113">
          <g id="Group_102" data-name="Group 102">
            <g id="Group_96" data-name="Group 96" transform="translate(0 5.193)">
              <rect id="Rectangle_21" data-name="Rectangle 21" class="cls-11" width="109.444" height="144.767" transform="translate(30.126) rotate(12.011)"/>
            </g>
            <g id="Group_97" data-name="Group 97" transform="translate(6.748 10.842)">
              <rect id="Rectangle_22" data-name="Rectangle 22" class="cls-12" width="98.37" height="133.935" transform="translate(27.872 0) rotate(12.011)"/>
            </g>
            <g id="Group_101" data-name="Group 101" transform="translate(61.13)">
              <g id="Group_98" data-name="Group 98" class="cls-13" transform="translate(0 15.932)">
                <rect id="Rectangle_23" data-name="Rectangle 23" width="42.759" height="3.961" transform="translate(0.824 0) rotate(12.011)"/>
              </g>
              <g id="Group_100" data-name="Group 100" transform="translate(0.02)">
                <g id="Group_99" data-name="Group 99">
                  <path id="Path_46" data-name="Path 46" class="cls-9" d="M198.935,351.023l-.647-.162.081-.4c.889-4.122-2.263-8.245-7.032-9.215l-6.224-1.293c-4.769-.97-9.3,1.455-10.1,5.577l-.081.4-.647-.162c-4.769-.97-9.3,1.455-10.1,5.577l-1.778,8.245,41.789,8.891,1.778-8.245C206.776,356.115,203.7,351.993,198.935,351.023Zm-6.871-1.293-10.993-2.344a2.076,2.076,0,0,1-1.617-2.425,2.118,2.118,0,0,1,2.506-1.617l10.993,2.344a2.076,2.076,0,0,1,1.617,2.425A2.118,2.118,0,0,1,192.065,349.73Z" transform="translate(-162.4 -339.736)"/>
                </g>
              </g>
            </g>
          </g>
          <g id="Group_106" data-name="Group 106" class="cls-14" transform="translate(24.599 50.151)">
            <g id="Group_103" data-name="Group 103" transform="translate(11.074)">
              <path id="Path_47" data-name="Path 47" class="cls-15" d="M148.921,404.787c-4.688-.97-9.457-2.021-14.145-2.991a.745.745,0,0,0-.889.566c-.97,4.688-2.021,9.376-2.991,13.984a.745.745,0,0,0,.566.889c4.688.97,9.457,2.021,14.145,2.991a.664.664,0,0,0,.566-.081h0a.742.742,0,0,0,.323-.485c.97-4.688,2.021-9.376,2.991-13.984A.835.835,0,0,0,148.921,404.787Zm-3.718,13.9c-4.2-.889-8.406-1.778-12.69-2.667.889-4.2,1.778-8.406,2.667-12.529,4.2.889,8.406,1.778,12.69,2.667C146.982,410.284,146.092,414.487,145.2,418.69Z" transform="translate(-130.881 -401.781)"/>
            </g>
            <g id="Group_104" data-name="Group 104" transform="translate(5.577 25.946)">
              <path id="Path_48" data-name="Path 48" class="cls-15" d="M142.121,436.887c-4.688-.97-9.457-2.021-14.145-2.991a.745.745,0,0,0-.889.566c-.97,4.688-2.021,9.376-2.991,13.984a.745.745,0,0,0,.566.889c4.688.97,9.457,2.021,14.145,2.991a.664.664,0,0,0,.566-.081h0a.742.742,0,0,0,.323-.485c.97-4.688,2.021-9.376,2.991-13.984A.745.745,0,0,0,142.121,436.887ZM138.4,450.709c-4.2-.889-8.406-1.778-12.69-2.667.889-4.2,1.778-8.406,2.667-12.529,4.2.889,8.406,1.778,12.69,2.667C140.182,442.383,139.292,446.587,138.4,450.709Z" transform="translate(-124.081 -433.881)"/>
            </g>
            <g id="Group_105" data-name="Group 105" transform="translate(0 51.812)">
              <path id="Path_49" data-name="Path 49" class="cls-15" d="M135.221,468.887c-4.688-.97-9.457-2.021-14.145-2.991a.745.745,0,0,0-.889.566c-.97,4.688-2.021,9.376-2.991,13.984a.745.745,0,0,0,.566.889c4.688.97,9.457,2.021,14.145,2.991a.664.664,0,0,0,.566-.081h0a.742.742,0,0,0,.323-.485c.97-4.688,2.021-9.376,2.991-13.984A.691.691,0,0,0,135.221,468.887Zm-3.637,13.9c-4.2-.889-8.406-1.778-12.69-2.667.889-4.2,1.778-8.406,2.667-12.529,4.2.889,8.406,1.778,12.69,2.667C133.362,474.383,132.473,478.587,131.584,482.79Z" transform="translate(-117.181 -465.881)"/>
            </g>
          </g>
          <g id="Group_107" data-name="Group 107" transform="translate(43.206 51.944)">
            <path id="Path_50" data-name="Path 50" class="cls-16" d="M140.2,408.526l3.476-.323,1.132,3.557L162.671,404l1.7.727-21.178,10.831Z" transform="translate(-140.2 -404)"/>
          </g>
          <g id="Group_108" data-name="Group 108" transform="translate(36.335 78.214)">
            <path id="Path_51" data-name="Path 51" class="cls-16" d="M131.7,441.107l3.476-.4,1.132,3.637,17.863-7.841,1.778.808-21.177,10.75Z" transform="translate(-131.7 -436.5)"/>
          </g>
          <g id="Group_109" data-name="Group 109" transform="translate(30.839 102.706)">
            <path id="Path_52" data-name="Path 52" class="cls-16" d="M124.9,471.326l3.476-.323,1.132,3.557,17.863-7.76,1.778.728-21.177,10.831Z" transform="translate(-124.9 -466.8)"/>
          </g>
          <g id="Group_110" data-name="Group 110" class="cls-17" transform="translate(49.079 112.598)">
            <rect id="Rectangle_24" data-name="Rectangle 24" class="cls-15" width="51.004" height="7.194" transform="translate(1.497) rotate(12.011)"/>
          </g>
          <g id="Group_111" data-name="Group 111" class="cls-17" transform="translate(54.892 85.193)">
            <rect id="Rectangle_25" data-name="Rectangle 25" class="cls-15" width="51.004" height="7.194" transform="translate(1.497 0) rotate(12.011)"/>
          </g>
          <g id="Group_112" data-name="Group 112" class="cls-17" transform="translate(60.705 57.788)">
            <rect id="Rectangle_26" data-name="Rectangle 26" class="cls-15" width="51.004" height="7.194" transform="translate(1.497) rotate(12.011)"/>
          </g>
        </g>
      </g>
    </g>
    <g id="Group_136" data-name="Group 136" transform="translate(154 1784.814)">
      <g id="Group_135" data-name="Group 135">
        <g id="Group_134" data-name="Group 134">
          <g id="Group_117" data-name="Group 117" transform="translate(35.365 29.416)">
            <g id="Group_116" data-name="Group 116">
              <path id="Path_53" data-name="Path 53" class="cls-16" d="M43.8,216.044l19.965-2.425a3.373,3.373,0,0,1,2.667-2.182l52.62-6.466a3.325,3.325,0,0,1,3.152,1.455L142.17,204l2.587,21.1-19.723,2.425a3.35,3.35,0,0,1-2.829,2.667l-52.62,6.466A3.432,3.432,0,0,1,66.19,234.8l-19.723,2.425Z" transform="translate(-43.8 -204)"/>
            </g>
          </g>
          <g id="Group_119" data-name="Group 119" class="cls-13" transform="translate(122.177 30.709)">
            <g id="Group_118" data-name="Group 118">
              <path id="Path_54" data-name="Path 54" class="cls-16" d="M156.211,205.6l2.506,20.531-7.517.97,2.829-21.339Z" transform="translate(-151.2 -205.6)"/>
            </g>
          </g>
          <g id="Group_126" data-name="Group 126" transform="translate(125.255)">
            <g id="Group_121" data-name="Group 121" transform="translate(0 2.425)">
              <g id="Group_120" data-name="Group 120">
                <path id="Path_55" data-name="Path 55" class="cls-16" d="M172.38,244.884l1.132-.162a9.311,9.311,0,0,0,8.164-10.427l-6.871-55.53a9.353,9.353,0,0,0-10.427-8.083l-1.132.162a9.311,9.311,0,0,0-8.164,10.427l6.871,55.53A9.353,9.353,0,0,0,172.38,244.884Z" transform="translate(-155.008 -170.608)"/>
              </g>
            </g>
            <g id="Group_123" data-name="Group 123" transform="translate(19.723)">
              <g id="Group_122" data-name="Group 122">
                <path id="Path_56" data-name="Path 56" class="cls-16" d="M196.78,241.884l1.132-.162a9.311,9.311,0,0,0,8.164-10.427l-6.871-55.53a9.353,9.353,0,0,0-10.427-8.083l-1.132.162a9.311,9.311,0,0,0-8.164,10.427l6.871,55.53A9.264,9.264,0,0,0,196.78,241.884Z" transform="translate(-179.408 -167.608)"/>
              </g>
            </g>
            <g id="Group_125" data-name="Group 125" transform="translate(39.136 25.168)">
              <g id="Group_124" data-name="Group 124">
                <path id="Path_57" data-name="Path 57" class="cls-16" d="M209.467,220.29l1.94-.889c1.455-.647,2.263-2.587,2.021-4.688l-1.374-11.4c-.242-2.1-1.536-3.8-3.072-4.122l-2.1-.4c-2.1-.4-3.8,2.021-3.395,4.931l1.536,12.69C205.345,219.24,207.527,221.179,209.467,220.29Z" transform="translate(-203.426 -198.745)"/>
              </g>
            </g>
          </g>
          <g id="Group_133" data-name="Group 133" transform="translate(0 15.196)">
            <g id="Group_128" data-name="Group 128" transform="translate(22.358)">
              <g id="Group_127" data-name="Group 127">
                <path id="Path_58" data-name="Path 58" class="cls-16" d="M46.212,260.523l-1.132.162A9.309,9.309,0,0,1,34.653,252.6l-6.871-55.53a9.356,9.356,0,0,1,8.164-10.427l1.132-.162A9.309,9.309,0,0,1,47.5,194.565l6.871,55.53A9.356,9.356,0,0,1,46.212,260.523Z" transform="translate(-27.708 -186.408)"/>
              </g>
            </g>
            <g id="Group_130" data-name="Group 130" transform="translate(2.716 2.425)">
              <g id="Group_129" data-name="Group 129">
                <path id="Path_59" data-name="Path 59" class="cls-16" d="M21.912,263.523l-1.132.162A9.309,9.309,0,0,1,10.353,255.6l-6.871-55.53a9.356,9.356,0,0,1,8.164-10.427l1.132-.162A9.309,9.309,0,0,1,23.2,197.565l6.871,55.53A9.356,9.356,0,0,1,21.912,263.523Z" transform="translate(-3.408 -189.408)"/>
              </g>
            </g>
            <g id="Group_132" data-name="Group 132" transform="translate(0 30.006)">
              <g id="Group_131" data-name="Group 131">
                <path id="Path_60" data-name="Path 60" class="cls-16" d="M6.637,245.249l-2.1-.4c-1.536-.323-2.829-2.021-3.072-4.122L.09,229.326c-.242-2.1.566-4.042,2.021-4.688l1.94-.889c1.94-.889,4.2,1.051,4.526,3.88l1.536,12.69C10.436,243.228,8.739,245.572,6.637,245.249Z" transform="translate(-0.047 -223.531)"/>
              </g>
            </g>
          </g>
        </g>
      </g>
    </g>
    <path id="Path_61" data-name="Path 61" class="cls-18" d="M466.1,384.073c-.97-2.182-4.85-4.2-4.85-4.2l-18.268-7.032a10.2,10.2,0,0,1-4.85-4.042,1.632,1.632,0,0,0,.808-2.1,1.6,1.6,0,0,0-2.182-.808h-.081l-1.132-2.587-15.6,6.871,1.132,2.587-.566.242a1.628,1.628,0,0,0-.808,2.182,1.6,1.6,0,0,0,2.182.808l.485-.162a10.016,10.016,0,0,1-.323,6.709l-7.679,18.025s-1.132,4.2-.162,6.386l4.931,11.235s15.6,6.062,9.78,22.067l29.422,67.331s28.776,4.688,51.974-22.794l-29.665-67.251c-15.115-6.224-9.619-22.147-9.619-22.147Z" transform="translate(74.634 1579.692)"/>
    <path id="Path_62" data-name="Path 62" class="cls-19" d="M499.466,464.949,484.593,431l-12.044,6.466c-9.7,4.769-17.136,7.841-27.644,12.125L432.7,453.713l14.873,33.949-.162.081c30.877-2.344,52.3-22.956,52.3-22.956Z" transform="translate(71.013 1566.714)"/>
    <path id="Path_63" data-name="Path 63" class="cls-20" d="M466.659,453.042,476.035,449l-4.607,11.882,9.619-.4L472.4,479.069l.162-12.609-7.76,1.7Z" transform="translate(64.86 1563.263)"/>
    <path id="Path_64" data-name="Path 64" class="cls-21" d="M434.861,363.455l-12.852,5.658a4.385,4.385,0,0,1-5.82-2.263l-1.778-3.961a4.385,4.385,0,0,1,2.263-5.82l12.852-5.658a4.385,4.385,0,0,1,5.82,2.263l1.778,3.961A4.385,4.385,0,0,1,434.861,363.455Z" transform="translate(74.591 1582.043)"/>
    <path id="Path_65" data-name="Path 65" class="cls-22" d="M424.4,377.213l15.762-7.113a12.182,12.182,0,0,0,1.132,1.374Z" transform="translate(72.604 1578.388)"/>
    <g id="Group_142" data-name="Group 142" transform="translate(493.771 1975.162)">
      <path id="Path_66" data-name="Path 66" class="cls-22" d="M472.455,403.262l-.081-.162L420.4,425.894l.081.162s15.6,6.062,9.78,22.067l.081.242,23.36-8.972a35.674,35.674,0,0,0,4.365-1.94l23.926-11.8-.081-.242C466.877,419.185,472.455,403.262,472.455,403.262Z" transform="translate(-420.4 -403.1)"/>
    </g>
    <g id="Group_145" data-name="Group 145" transform="translate(570.641 2031.501)">
      <path id="Path_67" data-name="Path 67" class="cls-23" d="M515.581,472.881l-.081-.081h0Z" transform="translate(-515.5 -472.8)"/>
    </g>
    <g id="Group_164" data-name="Group 164" transform="translate(345.61 1835.569)">
      <g id="Group_148" data-name="Group 148" transform="translate(0 0.727)">
        <path id="Path_68" data-name="Path 68" class="cls-24" d="M248.82,247.87V234.776L254.8,231.3l2.91,5.335v5.335l3.072,1.293-3.395,8.406-4.607,57.147L291.9,324.093,282.2,344.7l-41.547-24.33L237.1,305.906Z" transform="translate(-237.1 -231.3)"/>
      </g>
      <g id="Group_149" data-name="Group 149" transform="translate(35.646 260.354)">
        <path id="Path_69" data-name="Path 69" class="cls-24" d="M281.2,552.5l4.446,87.539,9.7,1.132,8-88.671Z" transform="translate(-281.2 -552.5)"/>
      </g>
      <g id="Group_150" data-name="Group 150" transform="translate(75.253 259.95)">
        <path id="Path_70" data-name="Path 70" class="cls-24" d="M352.347,552l2.91,86.569-9.619,1.132L330.2,553.374Z" transform="translate(-330.2 -552)"/>
      </g>
      <g id="Group_160" data-name="Group 160" transform="translate(22.632 37.371)">
        <g id="Group_152" data-name="Group 152" transform="translate(35.161 171.171)">
          <g id="Group_151" data-name="Group 151">
            <path id="Path_71" data-name="Path 71" class="cls-9" d="M349.985,544.173l.081-1.132-2.021-48.013L308.6,488.4l13.579,55.773Z" transform="translate(-308.6 -488.4)"/>
          </g>
        </g>
        <g id="Group_154" data-name="Group 154" transform="translate(8.245 157.025)">
          <g id="Group_153" data-name="Group 153">
            <path id="Path_72" data-name="Path 72" class="cls-9" d="M305.126,540.818,315.958,470.9l-38.718,3.718-1.94,36.374,1.617,29.826Z" transform="translate(-275.3 -470.9)"/>
          </g>
        </g>
        <g id="Group_156" data-name="Group 156" transform="translate(0 50.653)">
          <g id="Group_155" data-name="Group 155">
            <path id="Path_73" data-name="Path 73" class="cls-5" d="M328.228,342.372,299.857,339.3s-15.843,1.7-26.512,39.2c-5.981,20.854-7.76,53.752-8.245,78.89.647,3.557,4.607,19.238,21.016,16.57,28.29-4.526,43.406-9.134,55.692-6.871,10.508,2.263,9.619-12.205,8.487-23.2l-4.2-34.11Z" transform="translate(-265.1 -339.3)"/>
          </g>
        </g>
        <g id="Group_159" data-name="Group 159" transform="translate(20.856)">
          <g id="Group_157" data-name="Group 157" transform="translate(8.114 16.17)">
            <path id="Path_74" data-name="Path 74" class="cls-24" d="M329.6,298.79c-7.194-1.617-14.549-2.991-21.662-1.536-1.536.323-3.233.889-4.122,2.182a6.149,6.149,0,0,0-.647,1.7c-1.778,6.709-4.122,16.651.323,22.875a10.208,10.208,0,0,0,3.233,2.91,15.352,15.352,0,0,0,5.335,2.1,24.41,24.41,0,0,1-1.617,4.85c1.617,2.506,9.3,2.748,10.67.4.081-2.021.162-4.122.242-6.143a13.817,13.817,0,0,0,2.667-1.374,17.908,17.908,0,0,0,6.709-9.053c1.374-3.961,3.314-7.76,4.526-11.8.485-1.455.808-3.152,0-4.526-.808-1.455-2.587-1.94-4.2-2.263A9.394,9.394,0,0,1,329.6,298.79Z" transform="translate(-300.941 -296.639)"/>
          </g>
          <g id="Group_158" data-name="Group 158">
            <path id="Path_75" data-name="Path 75" class="cls-7" d="M303.914,298.835a22.383,22.383,0,0,1,12.205-2.991c10.023.727,13.741,8.083,14.307,17.378,2.748-3.557,8-7.921,8.326-12.448.242-3.718-.242-8.73-2.344-11.963-1.94-2.991-6.951-4.607-9.861-6.386-2.748-1.617-5.577-3.314-8.325-4.931a5.428,5.428,0,0,0-1.859-.808,5.671,5.671,0,0,0-2.344.242c-6.628,1.7-13.175,3.395-19.8,5.092-1.293.323-2.748.808-3.152,2.021a3.892,3.892,0,0,0,.081,2.344c.727,3.395,2.182,6.951,2.506,10.346.4,2.021,1.617,12.367,5.173,11.155,1.051-1.7,1.212-3.8,2.021-5.658A6.869,6.869,0,0,1,303.914,298.835Z" transform="translate(-290.903 -276.634)"/>
          </g>
        </g>
      </g>
      <g id="Group_161" data-name="Group 161" transform="translate(83.093)">
        <path id="Path_76" data-name="Path 76" class="cls-24" d="M380.234,247.859l2.748-12.771L377.89,230.4l-3.961,4.526L372.8,240.18l-3.314.566,1.536,8.972-7.6,56.9L339.9,323.112l5.092,22.147,27.806-24.9,6.547-13.337Z" transform="translate(-339.9 -230.4)"/>
      </g>
      <g id="Group_162" data-name="Group 162" transform="translate(31.281 347.893)">
        <path id="Path_77" data-name="Path 77" class="cls-4" d="M284.611,660.8l-8.811,5.577.808,4.931,18.591-2.263-.889-7.113Z" transform="translate(-275.8 -660.8)"/>
      </g>
      <g id="Group_163" data-name="Group 163" transform="translate(89.802 346.519)">
        <path id="Path_78" data-name="Path 78" class="cls-25" d="M358.708,659.1l8.891,5.577-.808,4.85L348.2,667.264l.889-7.032Z" transform="translate(-348.2 -659.1)"/>
      </g>
    </g>
    <g id="Group_170" data-name="Group 170" transform="translate(455.296 1819.186)">
      <g id="Group_165" data-name="Group 165">
        <path id="Path_79" data-name="Path 79" class="cls-18" d="M377.65,213.986c.162-.566,4.769-1.374,5.254-1.536a85.884,85.884,0,0,1,14.388-2.182c13.984-.889,24.9,2.667,37.505,8.326,11.559,5.173,30.635,9.619,63.694,1.374L506.816,243c.242.566-41.789,13.579-69.918,4.365-6.466-2.1-14.226-4.769-20.531-7.356a75.14,75.14,0,0,0-14.145-4.365c-9.7-2.021-19.884-2.263-29.422.323Z" transform="translate(-372.8 -210.132)"/>
      </g>
      <g id="Group_166" data-name="Group 166" transform="translate(30.985 0.031)">
        <rect id="Rectangle_27" data-name="Rectangle 27" class="cls-5" width="12.367" height="2.425" transform="translate(0 11.655) rotate(-70.463)"/>
      </g>
      <g id="Group_167" data-name="Group 167" transform="translate(54.134 6.505)">
        <rect id="Rectangle_28" data-name="Rectangle 28" class="cls-5" width="10.75" height="2.425" transform="translate(0 10.285) rotate(-73.071)"/>
      </g>
      <g id="Group_168" data-name="Group 168" transform="translate(77.627 13.418)">
        <rect id="Rectangle_29" data-name="Rectangle 29" class="cls-5" width="10.185" height="2.425" transform="matrix(0.198, -0.98, 0.98, 0.198, 0, 9.983)"/>
      </g>
      <g id="Group_169" data-name="Group 169" transform="translate(102.119 13.595)">
        <rect id="Rectangle_30" data-name="Rectangle 30" class="cls-5" width="2.425" height="10.427" transform="matrix(0.991, -0.134, 0.134, 0.991, 0, 0.324)"/>
      </g>
    </g>
    <path id="Path_80" data-name="Path 80" class="cls-20" d="M370.3,64.5c-17.3-12.609-35.565-9.861-48.5-4.769a38.014,38.014,0,0,1-29.018-.808C280.015,53.265,261.5,49.385,243.4,61.51,219.15,77.757,213.9,107.5,218.18,134.661c3.152,20.127,9.78,41.062,21.177,58.279,11.074,16.651,32.413,34.6,53.914,27.886a29.949,29.949,0,0,1,20.046.647c30.554,12.367,53.914-21.986,65.149-45.1,11.72-24.168,20.288-53.914,13.014-80.588A56.585,56.585,0,0,0,370.3,64.5Z" transform="translate(112.396 1639.073)"/>
    <path id="Path_81" data-name="Path 81" class="cls-6" d="M317.879,28.533a40.681,40.681,0,0,1,15.115-18.268c6.224-4.122,12.69-6.143,19-7.6A119.721,119.721,0,0,1,368.559,0,95.16,95.16,0,0,1,362.9,14.873c-3.233,7.032-6.709,14.145-11.235,20.45S341.481,47.2,335.5,49.791C323.133,55.288,311.574,44.537,317.879,28.533Z" transform="translate(93.365 1649.336)"/>
    <g id="Group_175" data-name="Group 175" transform="translate(324.315 1728.065)">
      <path id="Path_82" data-name="Path 82" class="cls-18" d="M220.814,97.4s-9.7,8.326,7.113,11.963c12.771,2.344,25.785,4.122,38.718,5.658,26.836,3.233,53.994,5.335,81.073,4.769,9.3-.162,18.672-.727,27.886-1.778,4.284-.485,8.649-1.132,12.852-1.94,3.314-.647,5.092-2.1,3.8-5.658,6.143,1.455,6.062,6.79,5.981,11.963a72.2,72.2,0,0,1-.889,10.185c-.485,3.072-.323,7.517-1.859,10.185-1.94,3.395-6.871,3.476-10.185,3.961-4.284.647-8.568,1.132-12.933,1.536-8.649.808-17.3,1.293-25.946,1.617a507.8,507.8,0,0,1-61.754-1.374c-12.367-1.051-24.734-2.506-37.02-4.526-6.547-1.051-13.094-2.263-19.642-3.557-4.2-.889-10.508-1.94-13.256-5.658a17.259,17.259,0,0,1-2.587-5.173c-2.263-6.628-1.455-14.145,0-20.854C212.085,108.716,213.944,99.5,220.814,97.4Z" transform="translate(-210.755 -97.4)"/>
    </g>
    <g id="Group_176" data-name="Group 176" transform="translate(327.49 1775.512)">
      <path id="Path_83" data-name="Path 83" class="cls-18" d="M217.93,156.1s1.132,11.478,9.619,12.205c0,0,108.716,12.125,164.085-7.921,0,0-.808,11.559-10.75,31.766-14.792,4.2-22.309,5.981-37.505,7.76a462.818,462.818,0,0,1-58.925,3.233c-11.882-.081-23.764-.727-35.565-1.778-10.346-.889-19.965-3.152-25.946-12.367a37.924,37.924,0,0,1-3.233-6.547c-1.7-4.365-2.748-8.972-4.122-13.418a24.739,24.739,0,0,1-.889-4.769C214.616,161.273,214.777,157.393,217.93,156.1Z" transform="translate(-214.682 -156.1)"/>
    </g>
    <g id="Group_189" data-name="Group 189" transform="translate(343.626 1740.739)">
      <g id="Group_177" data-name="Group 177" transform="translate(0.069)">
        <rect id="Rectangle_31" data-name="Rectangle 31" class="cls-5" width="13.579" height="2.425" transform="matrix(0.155, -0.988, 0.988, 0.155, 0, 13.415)"/>
      </g>
      <g id="Group_178" data-name="Group 178" transform="translate(28.396 4.128)">
        <rect id="Rectangle_32" data-name="Rectangle 32" class="cls-5" width="13.741" height="2.425" transform="translate(0 13.584) rotate(-81.321)"/>
      </g>
      <g id="Group_179" data-name="Group 179" transform="translate(56.557 7.176)">
        <rect id="Rectangle_33" data-name="Rectangle 33" class="cls-5" width="13.66" height="2.425" transform="matrix(0.116, -0.993, 0.993, 0.116, 0, 13.569)"/>
      </g>
      <g id="Group_180" data-name="Group 180" transform="translate(86.148 9.165)">
        <rect id="Rectangle_34" data-name="Rectangle 34" class="cls-5" width="13.903" height="2.425" transform="translate(0 13.876) rotate(-86.449)"/>
      </g>
      <g id="Group_181" data-name="Group 181" transform="translate(112.642 9.793)">
        <rect id="Rectangle_35" data-name="Rectangle 35" class="cls-5" width="2.425" height="13.579" transform="translate(0 0.236) rotate(-5.579)"/>
      </g>
      <g id="Group_182" data-name="Group 182" transform="translate(141.123 8.254)">
        <rect id="Rectangle_36" data-name="Rectangle 36" class="cls-5" width="2.425" height="13.499" transform="translate(0 0.024) rotate(-0.559)"/>
      </g>
      <g id="Group_183" data-name="Group 183" transform="translate(0 47.188)">
        <rect id="Rectangle_37" data-name="Rectangle 37" class="cls-5" width="2.425" height="12.852" transform="translate(0 0.355) rotate(-8.424)"/>
      </g>
      <g id="Group_184" data-name="Group 184" transform="translate(27.03 49.325)">
        <rect id="Rectangle_38" data-name="Rectangle 38" class="cls-5" width="2.425" height="12.852" transform="translate(0 0.187) rotate(-4.433)"/>
      </g>
      <g id="Group_185" data-name="Group 185" transform="translate(56.33 50.372)">
        <rect id="Rectangle_39" data-name="Rectangle 39" class="cls-5" width="2.425" height="11.882" transform="translate(0 0.257) rotate(-6.09)"/>
      </g>
      <g id="Group_186" data-name="Group 186" transform="translate(85.721 50.103)">
        <rect id="Rectangle_40" data-name="Rectangle 40" class="cls-5" width="2.425" height="12.69" transform="translate(0 0.28) rotate(-6.627)"/>
      </g>
      <g id="Group_187" data-name="Group 187" transform="translate(115.156 48.118)">
        <rect id="Rectangle_41" data-name="Rectangle 41" class="cls-5" width="2.425" height="13.499" transform="translate(0 0.204) rotate(-4.818)"/>
      </g>
      <g id="Group_188" data-name="Group 188" transform="translate(140.443 44.193)">
        <rect id="Rectangle_42" data-name="Rectangle 42" class="cls-5" width="2.425" height="13.337" transform="translate(0 0.334) rotate(-7.915)"/>
      </g>
    </g>
    <g id="Group_191" data-name="Group 191" transform="translate(185.809 1935.879)">
      <path id="Path_84" data-name="Path 84" class="cls-3" d="M85.311,434.037l10.346,7.921,6.466-2.587-2.506-5.577-4.2-3.233.889-3.233-8.81-2.425L55.485,395.319l3.637-21.1L49.5,354.5,39.4,397.744l6.386,12.367Z" transform="translate(-39.4 -354.5)"/>
    </g>
    <g id="Group_194" data-name="Group 194" transform="translate(218.06 1883.339)">
      <g id="Group_193" data-name="Group 193">
        <g id="Group_192" data-name="Group 192">
          <path id="Path_85" data-name="Path 85" class="cls-7" d="M79.3,289.5s11.478,6.3,12.367,20.369,4.2,22.713,4.2,22.713-4.2,3.152-8.083,1.778-5.254-1.536-5.173-7.275c0-5.82-3.314-32.736-3.314-32.736Z" transform="translate(-79.3 -289.5)"/>
        </g>
      </g>
    </g>
    <g id="Group_197" data-name="Group 197" transform="translate(200.365 1891.161)">
      <g id="Group_196" data-name="Group 196">
        <g id="Group_195" data-name="Group 195">
          <path id="Path_86" data-name="Path 86" class="cls-3" d="M83.106,306.713c-5.82-13.5-22.875-7.113-25.381,5.416-1.455,7.113,2.1,19.642,10.67,19.965.4,1.212,1.051,3.557,2.263,4.122,1.212.647,4.284-.889,5.5-1.455a2.292,2.292,0,0,0,.889-.647,4.368,4.368,0,0,0-.081-2.263,10.212,10.212,0,0,0,2.748-1.212c3.8-2.263,5.9-6.709,6.224-11.155A30.61,30.61,0,0,0,83.106,306.713Z" transform="translate(-57.408 -299.177)"/>
        </g>
      </g>
    </g>
    <g id="Group_200" data-name="Group 200" transform="translate(184.598 1879.879)">
      <g id="Group_199" data-name="Group 199">
        <g id="Group_198" data-name="Group 198">
          <path id="Path_87" data-name="Path 87" class="cls-7" d="M72.253,289.811s3.395,7.275-5.9,11.559-13.9,13.337-10.427,21.1c3.476,7.679,12.044,12.044,8.73,15.034s-17.863,3.961-17.863,3.961S31.919,314.868,40.649,300,65.868,281,72.253,289.811Z" transform="translate(-37.902 -285.219)"/>
        </g>
      </g>
    </g>
    <g id="Group_206" data-name="Group 206" transform="translate(634.441 1744.175)">
      <g id="Group_201" data-name="Group 201">
        <path id="Path_88" data-name="Path 88" class="cls-18" d="M706.194,250.029,600.63,237.015a7.094,7.094,0,0,1-6.143-7.921L607.5,123.53a7.094,7.094,0,0,1,7.921-6.143L720.986,130.4a7.094,7.094,0,0,1,6.143,7.921L714.115,243.886A7.094,7.094,0,0,1,706.194,250.029Z" transform="translate(-594.431 -117.331)"/>
      </g>
      <g id="Group_204" data-name="Group 204" transform="translate(40.875 14.547)">
        <g id="Group_202" data-name="Group 202">
          <path id="Path_89" data-name="Path 89" class="cls-10" d="M661.328,162.788a24.415,24.415,0,0,1,12.367-1.536,25.88,25.88,0,0,1,11.64,4.526l19.723-11.64A38.167,38.167,0,0,0,645,146.7Z" transform="translate(-645 -135.328)"/>
        </g>
        <g id="Group_203" data-name="Group 203" transform="translate(26.27 12.021)">
          <path id="Path_90" data-name="Path 90" class="cls-26" d="M682.188,164.426l-4.688-.647,4.122-13.579Z" transform="translate(-677.5 -150.2)"/>
        </g>
      </g>
      <g id="Group_205" data-name="Group 205" transform="translate(12.871 45.284)">
        <path id="Path_91" data-name="Path 91" class="cls-27" d="M700.84,249.937l-86.326-10.67a4.724,4.724,0,0,1-4.122-5.254l6.951-56.5a4.724,4.724,0,0,1,5.254-4.122l86.326,10.67a4.724,4.724,0,0,1,4.122,5.254l-6.951,56.5A4.724,4.724,0,0,1,700.84,249.937Z" transform="translate(-610.355 -173.355)"/>
      </g>
    </g>
    <g id="Group_207" data-name="Group 207" transform="translate(696.251 2114.998)">
      <path id="Path_92" data-name="Path 92" class="cls-3" d="M670.9,581.92l12.286,61.188,8.487.081-3.8-67.089Z" transform="translate(-670.9 -576.1)"/>
    </g>
    <g id="Group_208" data-name="Group 208" transform="translate(562.8 1933.212)">
      <path id="Path_93" data-name="Path 93" class="cls-3" d="M520.107,437.85l-7.436,10.831L505.8,448.2l.566-6.062,2.991-4.365L507.5,434.94l7.6-5.011,21.177-38.152L526.25,372.862l2.991-21.662,23.117,37.828-2.263,13.741Z" transform="translate(-505.8 -351.2)"/>
    </g>
  </g>
</svg>
