<svg xmlns="http://www.w3.org/2000/svg" viewBox="0 0 45.663 40">
  <defs>
    <style>
      .cls-1 {
        fill: #262829;
      }
    </style>
  </defs>
  <g id="Group_10" data-name="Group 10" transform="translate(-0.022 -2)">
    <g id="Group_9" data-name="Group 9" transform="translate(0.022 2)">
      <path id="Path_11" data-name="Path 11" class="cls-1" d="M45.372,25.489,34.612,12.935,23.905.489,23.851.435,23.8.38,23.742.326a.168.168,0,0,0-.109-.054c-.109-.054-.163-.109-.272-.163-.054,0-.163-.054-.217-.054S22.981,0,22.927,0h-.054c-.054,0-.163.054-.217.054a2.354,2.354,0,0,0-.272.054c-.054,0-.109.054-.163.109a.543.543,0,0,0-.272.217h-.054l-10.761,12.5L.372,25.435a.75.75,0,0,0-.163.217A1.341,1.341,0,0,0,.7,27.5L22.166,39.837h.054a1.159,1.159,0,0,0,.652.163,1.447,1.447,0,0,0,.652-.163h.054L44.938,27.554a1.188,1.188,0,0,0,.272-.163A1.369,1.369,0,0,0,45.372,25.489ZM21.514,36.3,3.525,25.924l3.043-3.533,14.946,8.641V36.3Zm0-8.424L8.362,20.326l3.043-3.533,10.109,5.815Zm0-8.37L13.2,14.728,16.242,11.2l5.272,3.043Zm0-8.424L18.036,9.076,21.514,5ZM24.231,5l3.478,4.076-3.478,2.011Zm5.326,6.2L32.6,14.728l-8.315,4.783V14.239h-.054ZM24.231,22.609,34.34,16.793l3.043,3.533L24.231,27.88Zm0,13.7V31.033l14.946-8.641,3.043,3.533Z" transform="translate(-0.022 0)"/>
    </g>
  </g>
</svg>
